<?xml version="1.0" encoding="UTF-8" standalone="no"?>
<svg
   width="64"
   height="64"
   version="1.1"
   viewBox="0 0 16.933 16.933"
   id="svg526"
   sodipodi:docname="input-keyboard.svg"
   inkscape:version="1.1.2 (0a00cf5339, 2022-02-04)"
   xmlns:inkscape="http://www.inkscape.org/namespaces/inkscape"
   xmlns:sodipodi="http://sodipodi.sourceforge.net/DTD/sodipodi-0.dtd"
   xmlns:xlink="http://www.w3.org/1999/xlink"
   xmlns="http://www.w3.org/2000/svg"
   xmlns:svg="http://www.w3.org/2000/svg"
   xmlns:rdf="http://www.w3.org/1999/02/22-rdf-syntax-ns#"
   xmlns:cc="http://creativecommons.org/ns#"
   xmlns:dc="http://purl.org/dc/elements/1.1/">
  <sodipodi:namedview
     id="namedview528"
     pagecolor="#ffffff"
     bordercolor="#666666"
     borderopacity="1.0"
     inkscape:pageshadow="2"
     inkscape:pageopacity="0.0"
     inkscape:pagecheckerboard="0"
     showgrid="false"
     inkscape:zoom="7.0158251"
     inkscape:cx="2.7794307"
     inkscape:cy="21.736574"
     inkscape:window-width="1920"
     inkscape:window-height="1026"
     inkscape:window-x="0"
     inkscape:window-y="28"
     inkscape:window-maximized="1"
     inkscape:current-layer="svg526" />
  <defs
     id="defs12">
    <linearGradient
       inkscape:collect="always"
       id="base-teclado">
      <stop
         style="stop-color:#c5ccd3;stop-opacity:1;"
         offset="0"
         id="stop4003" />
      <stop
         style="stop-color:#9ea6ad;stop-opacity:0.99607843"
         offset="1"
         id="stop4005" />
    </linearGradient>
    <linearGradient
       id="linearGradient3627"
       x1="36.257"
       x2="48.929"
       y1="7.243"
       y2="8.9727"
       gradientUnits="userSpaceOnUse">
      <stop
         stop-color="#f1f2f4"
         offset="0"
         id="stop2" />
      <stop
         stop-color="#e1e5e8"
         offset="1"
         id="stop4" />
    </linearGradient>
    <linearGradient
       id="linearGradient19237"
       x1="35.736"
       x2="48.914"
       y1="7.7553"
       y2="9.4074"
       gradientUnits="userSpaceOnUse">
      <stop
         stop-color="#363739"
         offset="0"
         id="stop7" />
      <stop
         stop-color="#505356"
         offset="1"
         id="stop9" />
    </linearGradient>
    <linearGradient
       inkscape:collect="always"
       xlink:href="#base-teclado"
       id="linearGradient4009"
       x1="4.1130404"
       y1="-2.1007938"
       x2="12.719228"
       y2="4.1834164"
       gradientUnits="userSpaceOnUse"
       gradientTransform="translate(0,7.6202307)" />
  </defs>
  <metadata
     id="metadata14">
    <rdf:RDF>
      <cc:Work
         rdf:about="">
        <dc:format>image/svg+xml</dc:format>
        <dc:type
           rdf:resource="http://purl.org/dc/dcmitype/StillImage" />
      </cc:Work>
    </rdf:RDF>
  </metadata>
  <rect
     style="opacity:1;fill:url(#linearGradient4009);fill-opacity:1;stroke-width:0.529156;stroke-linecap:round;stroke-linejoin:round;stroke-opacity:0.992157"
     id="rect1393"
     width="15.849822"
     height="6.6336064"
     x="0.53808832"
     y="5.0645757"
     rx="0.38779509"
     ry="0.38779509" />
  <path
     id="path11673"
     style="opacity:1;fill:#000000;fill-opacity:0.0598664;stroke:none;stroke-width:0.132289;stroke-linecap:round;stroke-linejoin:round;stroke-miterlimit:4;stroke-dasharray:none;stroke-opacity:0.0569775;paint-order:stroke fill markers"
     d="m 1.1324092,5.6178969 c -0.09426,0.00475 -0.1689787,0.082283 -0.1689787,0.1777634 v 0.2692289 c 2e-8,0.098561 0.0797196,0.1777634 0.1782803,0.1777634 h 1.199903 c 0.098561,0 0.1777635,-0.079203 0.1777635,-0.1777634 V 5.7956603 c 0,-0.098561 -0.079203,-0.1777634 -0.1777635,-0.1777634 h -1.199903 c -0.00308,0 -0.00626,-1.532e-4 -0.0093,0 z m 1.7967542,0 c -0.094261,0.00475 -0.1689787,0.082283 -0.1689787,0.1777634 v 0.2692289 c 0,0.098561 0.079719,0.1777634 0.1782802,0.1777634 H 3.631949 c 0.098561,0 0.1777634,-0.079203 0.1777634,-0.1777634 V 5.7956603 c 0,-0.098561 -0.079203,-0.1777634 -0.1777634,-0.1777634 H 2.9384649 c -0.00308,0 -0.00626,-1.532e-4 -0.0093,0 z m 1.2913685,0 c -0.09426,0.00475 -0.168462,0.082283 -0.168462,0.1777634 v 0.2692289 c 0,0.098561 0.079203,0.1777634 0.1777635,0.1777634 h 0.6934841 c 0.098561,0 0.1782801,-0.079203 0.1782801,-0.1777634 V 5.7956603 c 0,-0.098561 -0.079719,-0.1777634 -0.1782801,-0.1777634 H 4.2298334 c -0.00308,0 -0.00626,-1.532e-4 -0.0093,0 z m 1.3161729,0 c -0.09426,0.00475 -0.1684619,0.082283 -0.1684619,0.1777634 v 0.2692289 c 0,0.098561 0.079203,0.1777634 0.1777634,0.1777634 h 0.6934841 c 0.098561,0 0.1782802,-0.079203 0.1782802,-0.1777634 V 5.7956603 c 0,-0.098561 -0.079719,-0.1777634 -0.1782802,-0.1777634 H 5.5460063 c -0.00308,0 -0.00626,-1.532e-4 -0.0093,0 z m 1.3151393,0 c -0.09426,0.00475 -0.1684619,0.082283 -0.1684619,0.1777634 v 0.2692289 c 0,0.098561 0.079203,0.1777634 0.1777634,0.1777634 h 0.6934841 c 0.098561,0 0.1782801,-0.079203 0.1782801,-0.1777634 V 5.7956603 c 0,-0.098561 -0.079719,-0.1777634 -0.1782801,-0.1777634 H 6.8611456 c -0.00308,0 -0.00626,-1.532e-4 -0.0093,0 z m 1.2815502,0 c -0.09426,0.00475 -0.1689786,0.082283 -0.1689786,0.1777634 v 0.2692289 c 0,0.098561 0.079203,0.1777634 0.1777634,0.1777634 H 8.83618 c 0.098561,0 0.1777634,-0.079203 0.1777634,-0.1777634 V 5.7956603 c 0,-0.098561 -0.079203,-0.1777634 -0.1777634,-0.1777634 H 8.1421791 c -0.00308,0 -0.00574,-1.532e-4 -0.00878,0 z m 1.292402,0 c -0.094261,0.00475 -0.1689787,0.082283 -0.1689787,0.1777634 v 0.2692289 c 0,0.098561 0.079719,0.1777634 0.1782802,0.1777634 h 0.6934832 c 0.09856,0 0.177764,-0.079203 0.177764,-0.1777634 V 5.7956603 c 0,-0.098561 -0.0792,-0.1777634 -0.177764,-0.1777634 H 9.4350978 c -0.00308,0 -0.00626,-1.532e-4 -0.0093,0 z m 1.3048047,0 c -0.09426,0.00475 -0.16898,0.082283 -0.16898,0.1777634 v 0.2692289 c 0,0.098561 0.0792,0.1777634 0.177764,0.1777634 h 0.694001 c 0.09856,0 0.177764,-0.079203 0.177764,-0.1777634 V 5.7956603 c 0,-0.098561 -0.0792,-0.1777634 -0.177764,-0.1777634 h -0.694001 c -0.0031,0 -0.0057,-1.532e-4 -0.0088,0 z m 1.331675,0 c -0.09426,0.00475 -0.168978,0.082283 -0.168978,0.1777634 v 0.2692289 c 0,0.098561 0.07972,0.1777634 0.17828,0.1777634 h 0.693484 c 0.09856,0 0.17828,-0.079203 0.17828,-0.1777634 V 5.7956603 c 0,-0.098561 -0.07972,-0.1777634 -0.17828,-0.1777634 h -0.693484 c -0.0031,0 -0.0063,-1.532e-4 -0.0093,0 z m 1.279484,0 c -0.09426,0.00475 -0.168979,0.082283 -0.168979,0.1777634 v 0.2692289 c 0,0.098561 0.0792,0.1777634 0.177763,0.1777634 h 0.694001 c 0.09856,0 0.177763,-0.079203 0.177763,-0.1777634 V 5.7956603 c 0,-0.098561 -0.0792,-0.1777634 -0.177763,-0.1777634 h -0.694001 c -0.0031,0 -0.0057,-1.532e-4 -0.0088,0 z m 1.32599,0 c -0.09426,0.00475 -0.168461,0.082283 -0.168461,0.1777634 v 0.2692289 c 0,0.098561 0.0792,0.1777634 0.177763,0.1777634 h 1.230392 c 0.09856,0 0.177763,-0.079203 0.177763,-0.1777634 V 5.7956603 c 0,-0.098561 -0.0792,-0.1777634 -0.177763,-0.1777634 h -1.230392 c -0.0031,0 -0.0063,-1.532e-4 -0.0093,0 z M 1.1489453,6.4855272 c -0.098561,0 -0.17776348,0.079203 -0.17776348,0.1777635 v 0.6604118 c 0,0.098561 0.0792027,0.1777632 0.17776348,0.1777632 h 1.1575292 c 0.098561,2e-7 0.1777635,-0.079203 0.1777635,-0.1777632 V 6.6632907 c 0,-0.098561 -0.079203,-0.1777635 -0.1777635,-0.1777635 z m 1.7895196,0 c -0.098561,0 -0.1782802,0.079203 -0.1782802,0.1777635 v 0.6604118 c 0,0.098561 0.079719,0.1777632 0.1782802,0.1777632 H 3.631949 c 0.098561,2e-7 0.1777634,-0.079203 0.1777634,-0.1777632 V 6.6632907 c 0,-0.098561 -0.079203,-0.1777635 -0.1777634,-0.1777635 z m 1.2970529,0 c -0.098561,0 -0.1777634,0.079203 -0.1777634,0.1777635 v 0.6604118 c 0,0.098561 0.079203,0.1777632 0.1777634,0.1777632 h 0.6940009 c 0.098561,2e-7 0.1777634,-0.079203 0.1777634,-0.1777632 V 6.6632907 c 0,-0.098561 -0.079203,-0.1777635 -0.1777634,-0.1777635 z m 1.2851676,0 c -0.098561,0 -0.1782804,0.079203 -0.1782804,0.1777635 v 0.6604118 c 0,0.098561 0.079719,0.1777632 0.1782804,0.1777632 h 0.6934839 c 0.098561,2e-7 0.1782801,-0.079203 0.1782801,-0.1777632 V 6.6632907 c 3e-7,-0.098561 -0.079719,-0.1777635 -0.1782801,-0.1777635 z m 1.3161727,0 c -0.098561,0 -0.1782801,0.079203 -0.1782801,0.1777635 v 0.6604118 c 0,0.098561 0.079719,0.1777632 0.1782801,0.1777632 h 0.6934841 c 0.098561,2e-7 0.1777635,-0.079203 0.1777635,-0.1777632 V 6.6632907 c 0,-0.098561 -0.079203,-0.1777635 -0.1777635,-0.1777635 z m 1.3135891,0.016536 c -0.098561,0 -0.1777634,0.079719 -0.1777634,0.1782801 v 0.6598951 c 0,0.098561 0.079203,0.1782802 0.1777634,0.1782802 H 8.844448 c 0.098561,0 0.1777635,-0.07972 0.1777635,-0.1782802 V 6.6803435 c 0,-0.098561 -0.079203,-0.1782801 -0.1777635,-0.1782801 z m 1.282067,0 c -0.098561,0 -0.1777634,0.079719 -0.1777634,0.1782801 v 0.6598951 c 0,0.098561 0.079203,0.1782802 0.1777634,0.1782802 h 0.6940008 c 0.09856,0 0.177763,-0.07972 0.177763,-0.1782802 V 6.6803435 c 0,-0.098561 -0.0792,-0.1782801 -0.177763,-0.1782801 z m 1.2996368,0 c -0.09856,0 -0.178281,0.079719 -0.178281,0.1782801 v 0.6598951 c 0,0.098561 0.07972,0.1782802 0.178281,0.1782802 h 0.693484 c 0.09856,0 0.177763,-0.07972 0.177763,-0.1782802 V 6.6803435 c 0,-0.098561 -0.0792,-0.1782801 -0.177763,-0.1782801 z m 1.328058,0 c -0.09856,0 -0.177763,0.079719 -0.177763,0.1782801 v 0.6598951 c 0,0.098561 0.0792,0.1782802 0.177763,0.1782802 h 0.694001 c 0.09856,0 0.177763,-0.07972 0.177763,-0.1782802 V 6.6803435 c 0,-0.098561 -0.0792,-0.1782801 -0.177763,-0.1782801 z m 1.288785,0 c -0.09856,0 -0.177764,0.079719 -0.177764,0.1782801 v 0.6598951 c 0,0.098561 0.0792,0.1782802 0.177764,0.1782802 h 0.694001 c 0.09856,0 0.177763,-0.07972 0.177763,-0.1782802 V 6.6803435 c 0,-0.098561 -0.0792,-0.1782801 -0.177763,-0.1782801 z m 1.306354,0 c -0.09856,0 -0.177763,0.079719 -0.177763,0.1782801 v 0.6598951 c 0,0.098561 0.0792,0.1782802 0.177763,0.1782802 h 1.243311 c 0.09856,0 0.17828,-0.07972 0.17828,-0.1782802 V 6.6803435 c 0,-0.098561 -0.07972,-0.1782801 -0.17828,-0.1782801 z M 1.1282751,7.7991161 c -0.098561,0 -0.1782802,0.079719 -0.1782802,0.1782804 V 8.644526 c 0,0.098561 0.0797196,0.17828 0.1782802,0.17828 h 2.1176584 c 0.098561,0 0.1782801,-0.079719 0.1782801,-0.17828 V 7.9773965 c 0,-0.098561 -0.079719,-0.1782804 -0.1782801,-0.1782804 z m 2.7160597,0 c -0.098561,0 -0.1777634,0.079719 -0.1777634,0.1782804 V 8.644526 c 0,0.098561 0.079203,0.17828 0.1777634,0.17828 h 0.7301737 c 0.098561,0 0.1777635,-0.079719 0.1777635,-0.17828 V 7.9773965 c 0,-0.098561 -0.079203,-0.1782804 -0.1777635,-0.1782804 z m 1.307388,0 c -0.098561,0 -0.1782802,0.079719 -0.1782802,0.1782804 V 8.644526 c 0,0.098561 0.079719,0.17828 0.1782802,0.17828 h 0.7296569 c 0.098561,0 0.1782802,-0.079719 0.1782802,-0.17828 V 7.9773965 c 0,-0.098561 -0.079719,-0.1782804 -0.1782802,-0.1782804 z m 1.2737989,0 c -0.098561,0 -0.1777632,0.079719 -0.1777632,0.1782804 V 8.644526 c 0,0.098561 0.079203,0.17828 0.1777632,0.17828 h 0.7301737 c 0.098561,0 0.1777634,-0.079719 0.1777634,-0.17828 V 7.9773965 c 0,-0.098561 -0.079203,-0.1782804 -0.1777634,-0.1782804 z m 1.3032541,0 c -0.098561,0 -0.1777634,0.079719 -0.1777634,0.1782804 V 8.644526 c 0,0.098561 0.079203,0.17828 0.1777634,0.17828 h 0.7301735 c 0.098561,0 0.1777634,-0.079719 0.1777634,-0.17828 V 7.9773965 c 0,-0.098561 -0.079203,-0.1782804 -0.1777634,-0.1782804 z m 1.3177229,0 c -0.098561,0 -0.1777632,0.079719 -0.1777632,0.1782804 V 8.644526 c 0,0.098561 0.079202,0.17828 0.1777632,0.17828 h 0.7301737 c 0.098561,0 0.1777634,-0.079719 0.1777634,-0.17828 V 7.9773965 c 0,-0.098561 -0.079203,-0.1782804 -0.1777634,-0.1782804 z m 1.3166893,0 c -0.09856,0 -0.177764,0.079719 -0.177764,0.1782804 V 8.644526 c 0,0.098561 0.0792,0.17828 0.177764,0.17828 h 0.730174 c 0.09856,0 0.17828,-0.079719 0.17828,-0.17828 V 7.9773965 c 0,-0.098561 -0.07972,-0.1782804 -0.17828,-0.1782804 z m 1.317724,0 c -0.09856,0 -0.177764,0.079719 -0.177764,0.1782804 V 8.644526 c 0,0.098561 0.0792,0.17828 0.177764,0.17828 h 0.730173 c 0.09856,0 0.177764,-0.079719 0.177764,-0.17828 V 7.9773965 c 0,-0.098561 -0.0792,-0.1782804 -0.177764,-0.1782804 z m 1.276382,0 c -0.09856,0 -0.177763,0.079719 -0.177763,0.1782804 V 8.644526 c 0,0.098561 0.0792,0.17828 0.177763,0.17828 h 0.730174 c 0.09856,0 0.177763,-0.079719 0.177763,-0.17828 V 7.9773965 c 0,-0.098561 -0.0792,-0.1782804 -0.177763,-0.1782804 z m 1.353379,0 c -0.09856,0 -0.17828,0.079719 -0.17828,0.1782804 V 8.644526 c 0,0.098561 0.07972,0.17828 0.17828,0.17828 h 1.587986 c 0.09856,0 0.17828,-0.079719 0.17828,-0.17828 V 7.9773965 c 0,-0.098561 -0.07972,-0.1782804 -0.17828,-0.1782804 z M 1.1282751,9.0832501 c -0.098561,0 -0.1782802,0.07972 -0.1782802,0.1782801 v 0.6784982 c 0,0.098561 0.0797196,0.1777636 0.1782802,0.1777636 h 2.5052241 c 0.098561,0 0.1782801,-0.0792 0.1782801,-0.1777636 V 9.2615302 c 0,-0.098561 -0.079719,-0.1782801 -0.1782801,-0.1782801 z m 3.1258457,0 c -0.1118514,0 -0.2020509,0.090199 -0.2020509,0.2020509 v 0.6304399 c 0,0.1118521 0.090199,0.2020511 0.2020509,0.2020511 h 0.6573113 c 0.1118517,0 0.2020509,-0.0902 0.2020509,-0.2020511 V 9.285301 c 0,-0.1118517 -0.090199,-0.2020509 -0.2020509,-0.2020509 z m 1.2805169,0 c -0.095484,0 -0.172596,0.077112 -0.172596,0.1725959 v 0.6893501 c 0,0.095484 0.077112,0.1725959 0.172596,0.1725959 h 0.7162211 c 0.095484,0 0.172596,-0.07711 0.172596,-0.1725959 V 9.255846 c 0,-0.095484 -0.077112,-0.1725959 -0.172596,-0.1725959 z m 1.2996365,0 c -0.095484,0 -0.1725957,0.077112 -0.1725957,0.1725959 v 0.6893501 c 0,0.095484 0.077112,0.1725959 0.1725957,0.1725959 h 0.7162215 c 0.095484,0 0.1725957,-0.07711 0.1725957,-0.1725959 V 9.255846 c 0,-0.095484 -0.077112,-0.1725959 -0.1725957,-0.1725959 z m 1.2918855,0 c -0.095484,0 -0.1720792,0.077112 -0.1720792,0.1725959 v 0.6893501 c 0,0.095484 0.076595,0.1725959 0.1720792,0.1725959 h 0.7167379 c 0.095484,0 0.1720792,-0.07711 0.1720792,-0.1725959 V 9.255846 c 0,-0.095484 -0.076595,-0.1725959 -0.1720792,-0.1725959 z m 1.3177231,0 c -0.095484,0 -0.1720792,0.077112 -0.1720792,0.1725959 v 0.6893501 c 0,0.095484 0.076595,0.1725959 0.1720792,0.1725959 H 10.16062 c 0.09548,0 0.17208,-0.07711 0.17208,-0.1725959 V 9.255846 c 0,-0.095484 -0.0766,-0.1725959 -0.17208,-0.1725959 z m 1.2887842,0 c -0.09548,0 -0.172079,0.077112 -0.172079,0.1725959 v 0.6893501 c 0,0.095484 0.0766,0.1725959 0.172079,0.1725959 h 0.716739 c 0.09548,0 0.172079,-0.07711 0.172079,-0.1725959 V 9.255846 c 0,-0.095484 -0.0766,-0.1725959 -0.172079,-0.1725959 z m 1.293953,0 c -0.09548,0 -0.172596,0.077112 -0.172596,0.1725959 v 0.6893501 c 0,0.095484 0.07711,0.1725959 0.172596,0.1725959 h 0.716738 c 0.09548,0 0.172079,-0.07711 0.172079,-0.1725959 V 9.255846 c 0,-0.095484 -0.07659,-0.1725959 -0.172079,-0.1725959 z m 1.329092,0 c -0.09548,0 -0.172596,0.077112 -0.172596,0.1725959 v 0.6893501 c 0,0.095484 0.07711,0.1725959 0.172596,0.1725959 h 2.56 c 0.09548,0 0.172079,-0.07711 0.172079,-0.1725959 V 9.255846 c 0,-0.095484 -0.07659,-0.1725959 -0.172079,-0.1725959 z M 1.1355097,10.40304 c -0.091318,0.0046 -0.16329436,0.07958 -0.16329436,0.172079 v 0.694518 c 0,0.09548 0.0771122,0.172079 0.17259596,0.172079 h 1.189568 c 0.095484,0 0.1720791,-0.0766 0.1720791,-0.172079 v -0.694518 c 0,-0.09548 -0.076595,-0.172079 -0.1720791,-0.172079 h -1.189568 c -0.00298,0 -0.00636,-1.48e-4 -0.0093,0 z m 1.7843519,0 c -0.091318,0.0046 -0.1632942,0.07958 -0.1632942,0.172079 v 0.694518 c 0,0.09548 0.076595,0.172079 0.1720792,0.172079 h 0.7229391 c 0.095484,0 0.1725957,-0.0766 0.1725957,-0.172079 v -0.694518 c 0,-0.09548 -0.077112,-0.172079 -0.1725957,-0.172079 H 2.9286466 c -0.00298,0 -0.00584,-1.48e-4 -0.00878,0 z m 1.3125556,0 c -0.091318,0.0046 -0.1638111,0.07958 -0.1638111,0.172079 v 0.694518 c 0,0.09548 0.077112,0.172079 0.1725959,0.172079 h 0.7229391 c 0.095484,0 0.1720792,-0.0766 0.1720792,-0.172079 v -0.694518 c 0,-0.09548 -0.076596,-0.172079 -0.1720792,-0.172079 H 4.241202 c -0.00298,0 -0.00584,-1.48e-4 -0.00878,0 z m 1.3275414,0 c -0.095484,0 -0.172596,0.0766 -0.172596,0.172079 v 0.694518 c 0,0.09548 0.077112,0.172079 0.172596,0.172079 h 5.8873804 c 0.09548,0 0.172596,-0.0766 0.172596,-0.172079 v -0.694518 c 0,-0.09548 -0.07711,-0.172079 -0.172596,-0.172079 z m 6.4790634,0 c -0.09132,0.0046 -0.163294,0.07958 -0.163294,0.172079 v 0.694518 c 0,0.09548 0.07659,0.172079 0.172079,0.172079 h 0.701235 c 0.09548,0 0.172596,-0.0766 0.172596,-0.172079 v -0.694518 c 0,-0.09548 -0.07711,-0.172079 -0.172596,-0.172079 h -0.701235 c -0.003,0 -0.0058,-1.48e-4 -0.0088,0 z m 1.302738,0 c -0.09132,0.0046 -0.163295,0.07958 -0.163295,0.172079 v 0.694518 c 0,0.09548 0.0766,0.172079 0.172079,0.172079 h 0.701236 c 0.09548,0 0.172595,-0.0766 0.172595,-0.172079 v -0.694518 c 0,-0.09548 -0.07711,-0.172079 -0.172595,-0.172079 h -0.701236 c -0.003,0 -0.0058,-1.48e-4 -0.0088,0 z m 1.289301,0 c -0.09132,0.0046 -0.163294,0.07958 -0.163294,0.172079 v 0.694518 c 0,0.09548 0.07711,0.172079 0.172596,0.172079 h 1.275349 c 0.09548,0 0.172079,-0.0766 0.172079,-0.172079 v -0.694518 c 0,-0.09548 -0.07659,-0.172079 -0.172079,-0.172079 h -1.275349 c -0.003,0 -0.0064,-1.48e-4 -0.0093,0 z" />
  <path
     id="rect7312"
     style="opacity:1;fill:#f3f4f6;fill-opacity:1;stroke:#000000;stroke-width:0.132289;stroke-linecap:round;stroke-linejoin:round;stroke-miterlimit:4;stroke-dasharray:none;stroke-opacity:0.0569775;paint-order:stroke fill markers"
     d="m 1.0249177,5.5194369 c -0.0942604,0.00475 -0.16897864,0.082283 -0.16897864,0.1777634 v 0.2692289 c 2e-8,0.098561 0.0797195,0.1777634 0.17828024,0.1777634 h 1.199903 c 0.098561,0 0.1777635,-0.079203 0.1777635,-0.1777634 V 5.6972003 c 0,-0.098561 -0.079203,-0.1777634 -0.1777635,-0.1777634 h -1.199903 c -0.00308,0 -0.00626,-1.532e-4 -0.0093,0 z m 1.7967542,0 c -0.094261,0.00475 -0.1689787,0.082283 -0.1689787,0.1777634 v 0.2692289 c 0,0.098561 0.079719,0.1777634 0.1782802,0.1777634 h 0.6934841 c 0.098561,0 0.1777634,-0.079203 0.1777634,-0.1777634 V 5.6972003 c 0,-0.098561 -0.079203,-0.1777634 -0.1777634,-0.1777634 H 2.8309734 c -0.00308,0 -0.00626,-1.532e-4 -0.0093,0 z m 1.2913685,0 c -0.09426,0.00475 -0.168462,0.082283 -0.168462,0.1777634 v 0.2692289 c 0,0.098561 0.079203,0.1777634 0.1777635,0.1777634 H 4.815826 c 0.098561,0 0.1782801,-0.079203 0.1782801,-0.1777634 V 5.6972003 c 0,-0.098561 -0.079719,-0.1777634 -0.1782801,-0.1777634 H 4.1223419 c -0.00308,0 -0.00626,-1.532e-4 -0.0093,0 z m 1.3161729,0 c -0.09426,0.00475 -0.1684619,0.082283 -0.1684619,0.1777634 v 0.2692289 c 0,0.098561 0.079203,0.1777634 0.1777634,0.1777634 h 0.6934841 c 0.098561,0 0.1782802,-0.079203 0.1782802,-0.1777634 V 5.6972003 c 0,-0.098561 -0.079719,-0.1777634 -0.1782802,-0.1777634 H 5.4385148 c -0.00308,0 -0.00626,-1.532e-4 -0.0093,0 z m 1.3151393,0 c -0.09426,0.00475 -0.1684619,0.082283 -0.1684619,0.1777634 v 0.2692289 c 0,0.098561 0.079203,0.1777634 0.1777634,0.1777634 h 0.6934841 c 0.098561,0 0.1782801,-0.079203 0.1782801,-0.1777634 V 5.6972003 c 0,-0.098561 -0.079719,-0.1777634 -0.1782801,-0.1777634 H 6.7536541 c -0.00308,0 -0.00626,-1.532e-4 -0.0093,0 z m 1.2815502,0 c -0.09426,0.00475 -0.1689786,0.082283 -0.1689786,0.1777634 v 0.2692289 c 0,0.098561 0.079203,0.1777634 0.1777634,0.1777634 h 0.6940009 c 0.098561,0 0.1777634,-0.079203 0.1777634,-0.1777634 V 5.6972003 c 0,-0.098561 -0.079203,-0.1777634 -0.1777634,-0.1777634 H 8.0346876 c -0.00308,0 -0.00574,-1.532e-4 -0.00878,0 z m 1.292402,0 c -0.094261,0.00475 -0.1689787,0.082283 -0.1689787,0.1777634 v 0.2692289 c 0,0.098561 0.079719,0.1777634 0.1782802,0.1777634 H 10.02109 c 0.09856,0 0.177764,-0.079203 0.177764,-0.1777634 V 5.6972003 c 0,-0.098561 -0.0792,-0.1777634 -0.177764,-0.1777634 H 9.3276063 c -0.00308,0 -0.00626,-1.532e-4 -0.0093,0 z m 1.3048052,0 c -0.09426,0.00475 -0.16898,0.082283 -0.16898,0.1777634 v 0.2692289 c 0,0.098561 0.0792,0.1777634 0.177764,0.1777634 h 0.694001 c 0.09856,0 0.177764,-0.079203 0.177764,-0.1777634 V 5.6972003 c 0,-0.098561 -0.0792,-0.1777634 -0.177764,-0.1777634 h -0.694001 c -0.0031,0 -0.0057,-1.532e-4 -0.0088,0 z m 1.331675,0 c -0.09426,0.00475 -0.168978,0.082283 -0.168978,0.1777634 v 0.2692289 c 0,0.098561 0.07972,0.1777634 0.17828,0.1777634 h 0.693484 c 0.09856,0 0.17828,-0.079203 0.17828,-0.1777634 V 5.6972003 c 0,-0.098561 -0.07972,-0.1777634 -0.17828,-0.1777634 h -0.693484 c -0.0031,0 -0.0063,-1.532e-4 -0.0093,0 z m 1.279484,0 c -0.09426,0.00475 -0.168979,0.082283 -0.168979,0.1777634 v 0.2692289 c 0,0.098561 0.0792,0.1777634 0.177763,0.1777634 h 0.694001 c 0.09856,0 0.177763,-0.079203 0.177763,-0.1777634 V 5.6972003 c 0,-0.098561 -0.0792,-0.1777634 -0.177763,-0.1777634 h -0.694001 c -0.0031,0 -0.0057,-1.532e-4 -0.0088,0 z m 1.32599,0 c -0.09426,0.00475 -0.168461,0.082283 -0.168461,0.1777634 v 0.2692289 c 0,0.098561 0.0792,0.1777634 0.177763,0.1777634 h 1.230392 c 0.09856,0 0.177763,-0.079203 0.177763,-0.1777634 V 5.6972003 c 0,-0.098561 -0.0792,-0.1777634 -0.177763,-0.1777634 h -1.230392 c -0.0031,0 -0.0063,-1.532e-4 -0.0093,0 z M 1.0414538,6.3870672 c -0.0985607,0 -0.17776342,0.079203 -0.17776342,0.1777635 v 0.6604117 c 0,0.098561 0.0792027,0.1777632 0.17776342,0.1777632 H 2.198983 c 0.098561,2e-7 0.1777635,-0.079203 0.1777635,-0.1777632 V 6.5648307 c 0,-0.098561 -0.079203,-0.1777635 -0.1777635,-0.1777635 z m 1.7895196,0 c -0.098561,0 -0.1782802,0.079203 -0.1782802,0.1777635 v 0.6604117 c 0,0.098561 0.079719,0.1777632 0.1782802,0.1777632 h 0.6934841 c 0.098561,2e-7 0.1777634,-0.079203 0.1777634,-0.1777632 V 6.5648307 c 0,-0.098561 -0.079203,-0.1777635 -0.1777634,-0.1777635 z m 1.2970529,0 c -0.098561,0 -0.1777634,0.079203 -0.1777634,0.1777635 v 0.6604117 c 0,0.098561 0.079203,0.1777632 0.1777634,0.1777632 h 0.6940009 c 0.098561,2e-7 0.1777634,-0.079203 0.1777634,-0.1777632 V 6.5648307 c 0,-0.098561 -0.079203,-0.1777635 -0.1777634,-0.1777635 z m 1.2851676,0 c -0.098561,0 -0.1782804,0.079203 -0.1782804,0.1777635 v 0.6604117 c 0,0.098561 0.079719,0.1777632 0.1782804,0.1777632 h 0.6934839 c 0.098561,2e-7 0.1782801,-0.079203 0.1782801,-0.1777632 V 6.5648307 c 3e-7,-0.098561 -0.079719,-0.1777635 -0.1782801,-0.1777635 z m 1.3161727,0 c -0.098561,0 -0.1782801,0.079203 -0.1782801,0.1777635 v 0.6604117 c 0,0.098561 0.079719,0.1777632 0.1782801,0.1777632 h 0.6934841 c 0.098561,2e-7 0.1777635,-0.079203 0.1777635,-0.1777632 V 6.5648307 c 0,-0.098561 -0.079203,-0.1777635 -0.1777635,-0.1777635 z m 1.3135891,0.016536 c -0.098561,0 -0.1777634,0.079719 -0.1777634,0.1782801 v 0.659895 c 0,0.098561 0.079203,0.1782802 0.1777634,0.1782802 h 0.6940008 c 0.098561,0 0.1777635,-0.07972 0.1777635,-0.1782802 V 6.5818835 c 0,-0.098561 -0.079203,-0.1782801 -0.1777635,-0.1782801 z m 1.282067,0 c -0.098561,0 -0.1777634,0.079719 -0.1777634,0.1782801 v 0.659895 c 0,0.098561 0.079203,0.1782802 0.1777634,0.1782802 h 0.6940013 c 0.09856,0 0.177763,-0.07972 0.177763,-0.1782802 V 6.5818835 c 0,-0.098561 -0.0792,-0.1782801 -0.177763,-0.1782801 z m 1.2996373,0 c -0.09856,0 -0.178281,0.079719 -0.178281,0.1782801 v 0.659895 c 0,0.098561 0.07972,0.1782802 0.178281,0.1782802 h 0.693484 c 0.09856,0 0.177763,-0.07972 0.177763,-0.1782802 V 6.5818835 c 0,-0.098561 -0.0792,-0.1782801 -0.177763,-0.1782801 z m 1.328058,0 c -0.09856,0 -0.177763,0.079719 -0.177763,0.1782801 v 0.659895 c 0,0.098561 0.0792,0.1782802 0.177763,0.1782802 h 0.694001 c 0.09856,0 0.177763,-0.07972 0.177763,-0.1782802 V 6.5818835 c 0,-0.098561 -0.0792,-0.1782801 -0.177763,-0.1782801 z m 1.288785,0 c -0.09856,0 -0.177764,0.079719 -0.177764,0.1782801 v 0.659895 c 0,0.098561 0.0792,0.1782802 0.177764,0.1782802 h 0.694001 c 0.09856,0 0.177763,-0.07972 0.177763,-0.1782802 V 6.5818835 c 0,-0.098561 -0.0792,-0.1782801 -0.177763,-0.1782801 z m 1.306354,0 c -0.09856,0 -0.177763,0.079719 -0.177763,0.1782801 v 0.659895 c 0,0.098561 0.0792,0.1782802 0.177763,0.1782802 h 1.243311 c 0.09856,0 0.17828,-0.07972 0.17828,-0.1782802 V 6.5818835 c 0,-0.098561 -0.07972,-0.1782801 -0.17828,-0.1782801 z M 1.0207836,7.700656 c -0.0985607,0 -0.17828014,0.079719 -0.17828014,0.1782804 v 0.6671295 c 0,0.098561 0.0797195,0.1782801 0.17828014,0.1782801 H 3.138442 c 0.098561,0 0.1782801,-0.079719 0.1782801,-0.1782801 V 7.8789364 c 0,-0.098561 -0.079719,-0.1782804 -0.1782801,-0.1782804 z m 2.7160597,0 c -0.098561,0 -0.1777634,0.079719 -0.1777634,0.1782804 v 0.6671295 c 0,0.098561 0.079203,0.1782801 0.1777634,0.1782801 H 4.467017 c 0.098561,0 0.1777635,-0.079719 0.1777635,-0.1782801 V 7.8789364 c 0,-0.098561 -0.079203,-0.1782804 -0.1777635,-0.1782804 z m 1.307388,0 c -0.098561,0 -0.1782802,0.079719 -0.1782802,0.1782804 v 0.6671295 c 0,0.098561 0.079719,0.1782801 0.1782802,0.1782801 h 0.7296569 c 0.098561,0 0.1782802,-0.079719 0.1782802,-0.1782801 V 7.8789364 c 0,-0.098561 -0.079719,-0.1782804 -0.1782802,-0.1782804 z m 1.2737989,0 c -0.098561,0 -0.1777632,0.079719 -0.1777632,0.1782804 v 0.6671295 c 0,0.098561 0.079203,0.1782801 0.1777632,0.1782801 h 0.7301737 c 0.098561,0 0.1777634,-0.079719 0.1777634,-0.1782801 V 7.8789364 c 0,-0.098561 -0.079203,-0.1782804 -0.1777634,-0.1782804 z m 1.3032541,0 c -0.098561,0 -0.1777634,0.079719 -0.1777634,0.1782804 v 0.6671295 c 0,0.098561 0.079203,0.1782801 0.1777634,0.1782801 h 0.7301735 c 0.098561,0 0.1777634,-0.079719 0.1777634,-0.1782801 V 7.8789364 c 0,-0.098561 -0.079203,-0.1782804 -0.1777634,-0.1782804 z m 1.3177229,0 c -0.098561,0 -0.1777632,0.079719 -0.1777632,0.1782804 v 0.6671295 c 0,0.098561 0.079202,0.1782801 0.1777632,0.1782801 h 0.7301737 c 0.098561,0 0.1777634,-0.079719 0.1777634,-0.1782801 V 7.8789364 c 0,-0.098561 -0.079203,-0.1782804 -0.1777634,-0.1782804 z m 1.3166898,0 c -0.09856,0 -0.177764,0.079719 -0.177764,0.1782804 v 0.6671295 c 0,0.098561 0.0792,0.1782801 0.177764,0.1782801 h 0.730174 c 0.09856,0 0.17828,-0.079719 0.17828,-0.1782801 V 7.8789364 c 0,-0.098561 -0.07972,-0.1782804 -0.17828,-0.1782804 z m 1.317724,0 c -0.09856,0 -0.177764,0.079719 -0.177764,0.1782804 v 0.6671295 c 0,0.098561 0.0792,0.1782801 0.177764,0.1782801 h 0.730173 c 0.09856,0 0.177764,-0.079719 0.177764,-0.1782801 V 7.8789364 c 0,-0.098561 -0.0792,-0.1782804 -0.177764,-0.1782804 z m 1.276382,0 c -0.09856,0 -0.177763,0.079719 -0.177763,0.1782804 v 0.6671295 c 0,0.098561 0.0792,0.1782801 0.177763,0.1782801 h 0.730174 c 0.09856,0 0.177763,-0.079719 0.177763,-0.1782801 V 7.8789364 c 0,-0.098561 -0.0792,-0.1782804 -0.177763,-0.1782804 z m 1.353379,0 c -0.09856,0 -0.17828,0.079719 -0.17828,0.1782804 v 0.6671295 c 0,0.098561 0.07972,0.1782801 0.17828,0.1782801 h 1.587986 c 0.09856,0 0.17828,-0.079719 0.17828,-0.1782801 V 7.8789364 c 0,-0.098561 -0.07972,-0.1782804 -0.17828,-0.1782804 z M 1.0207836,8.9847901 c -0.0985607,0 -0.17828014,0.07972 -0.17828014,0.1782801 v 0.6784982 c 0,0.098561 0.0797195,0.1777636 0.17828014,0.1777636 h 2.5052241 c 0.098561,0 0.1782801,-0.079203 0.1782801,-0.1777636 V 9.1630702 c 0,-0.098561 -0.079719,-0.1782801 -0.1782801,-0.1782801 z m 3.1258457,0 c -0.1118514,0 -0.2020509,0.090199 -0.2020509,0.2020509 v 0.6304399 c 0,0.1118517 0.090199,0.2020511 0.2020509,0.2020511 h 0.6573113 c 0.1118517,0 0.2020509,-0.090199 0.2020509,-0.2020511 V 9.186841 c 0,-0.1118517 -0.090199,-0.2020509 -0.2020509,-0.2020509 z m 1.2805169,0 c -0.095484,0 -0.172596,0.077112 -0.172596,0.1725959 v 0.6893501 c 0,0.095484 0.077112,0.1725959 0.172596,0.1725959 h 0.7162211 c 0.095484,0 0.172596,-0.077112 0.172596,-0.1725959 V 9.157386 c 0,-0.095484 -0.077112,-0.1725959 -0.172596,-0.1725959 z m 1.2996365,0 c -0.095484,0 -0.1725957,0.077112 -0.1725957,0.1725959 v 0.6893501 c 0,0.095484 0.077112,0.1725959 0.1725957,0.1725959 h 0.7162215 c 0.095484,0 0.1725957,-0.077112 0.1725957,-0.1725959 V 9.157386 c 0,-0.095484 -0.077112,-0.1725959 -0.1725957,-0.1725959 z m 1.2918855,0 c -0.095484,0 -0.1720792,0.077112 -0.1720792,0.1725959 v 0.6893501 c 0,0.095484 0.076595,0.1725959 0.1720792,0.1725959 h 0.7167379 c 0.095484,0 0.1720792,-0.077112 0.1720792,-0.1725959 V 9.157386 c 0,-0.095484 -0.076595,-0.1725959 -0.1720792,-0.1725959 z m 1.3177231,0 c -0.095484,0 -0.1720792,0.077112 -0.1720792,0.1725959 v 0.6893501 c 0,0.095484 0.076595,0.1725959 0.1720792,0.1725959 h 0.7167377 c 0.09548,0 0.17208,-0.077112 0.17208,-0.1725959 V 9.157386 c 0,-0.095484 -0.0766,-0.1725959 -0.17208,-0.1725959 z m 1.2887847,0 c -0.09548,0 -0.172079,0.077112 -0.172079,0.1725959 v 0.6893501 c 0,0.095484 0.0766,0.1725959 0.172079,0.1725959 h 0.716739 c 0.09548,0 0.172079,-0.077112 0.172079,-0.1725959 V 9.157386 c 0,-0.095484 -0.0766,-0.1725959 -0.172079,-0.1725959 z m 1.293953,0 c -0.09548,0 -0.172596,0.077112 -0.172596,0.1725959 v 0.6893501 c 0,0.095484 0.07711,0.1725959 0.172596,0.1725959 h 0.716738 c 0.09548,0 0.172079,-0.077112 0.172079,-0.1725959 V 9.157386 c 0,-0.095484 -0.07659,-0.1725959 -0.172079,-0.1725959 z m 1.329092,0 c -0.09548,0 -0.172596,0.077112 -0.172596,0.1725959 v 0.6893501 c 0,0.095484 0.07711,0.1725959 0.172596,0.1725959 h 2.56 c 0.09548,0 0.172079,-0.077112 0.172079,-0.1725959 V 9.157386 c 0,-0.095484 -0.07659,-0.1725959 -0.172079,-0.1725959 z M 1.0280182,10.30458 c -0.0913177,0.0046 -0.1632943,0.07958 -0.1632943,0.172079 v 0.694518 c 0,0.09548 0.0771122,0.172079 0.1725959,0.172079 h 1.189568 c 0.095484,0 0.1720791,-0.0766 0.1720791,-0.172079 v -0.694518 c 0,-0.09548 -0.076595,-0.172079 -0.1720791,-0.172079 h -1.189568 c -0.00298,0 -0.00636,-1.48e-4 -0.0093,0 z m 1.7843519,0 c -0.091318,0.0046 -0.1632942,0.07958 -0.1632942,0.172079 v 0.694518 c 0,0.09548 0.076595,0.172079 0.1720792,0.172079 h 0.7229391 c 0.095484,0 0.1725957,-0.0766 0.1725957,-0.172079 v -0.694518 c 0,-0.09548 -0.077112,-0.172079 -0.1725957,-0.172079 H 2.8211551 c -0.00298,0 -0.00584,-1.48e-4 -0.00878,0 z m 1.3125556,0 c -0.091318,0.0046 -0.1638111,0.07958 -0.1638111,0.172079 v 0.694518 c 0,0.09548 0.077112,0.172079 0.1725959,0.172079 h 0.7229391 c 0.095484,0 0.1720792,-0.0766 0.1720792,-0.172079 v -0.694518 c 0,-0.09548 -0.076596,-0.172079 -0.1720792,-0.172079 H 4.1337105 c -0.00298,0 -0.00584,-1.48e-4 -0.00878,0 z m 1.3275414,0 c -0.095484,0 -0.172596,0.0766 -0.172596,0.172079 v 0.694518 c 0,0.09548 0.077112,0.172079 0.172596,0.172079 h 5.8873809 c 0.09548,0 0.172596,-0.0766 0.172596,-0.172079 v -0.694518 c 0,-0.09548 -0.07711,-0.172079 -0.172596,-0.172079 z m 6.4790639,0 c -0.09132,0.0046 -0.163294,0.07958 -0.163294,0.172079 v 0.694518 c 0,0.09548 0.07659,0.172079 0.172079,0.172079 h 0.701235 c 0.09548,0 0.172596,-0.0766 0.172596,-0.172079 v -0.694518 c 0,-0.09548 -0.07711,-0.172079 -0.172596,-0.172079 h -0.701235 c -0.003,0 -0.0058,-1.48e-4 -0.0088,0 z m 1.302738,0 c -0.09132,0.0046 -0.163295,0.07958 -0.163295,0.172079 v 0.694518 c 0,0.09548 0.0766,0.172079 0.172079,0.172079 h 0.701236 c 0.09548,0 0.172595,-0.0766 0.172595,-0.172079 v -0.694518 c 0,-0.09548 -0.07711,-0.172079 -0.172595,-0.172079 h -0.701236 c -0.003,0 -0.0058,-1.48e-4 -0.0088,0 z m 1.289301,0 c -0.09132,0.0046 -0.163294,0.07958 -0.163294,0.172079 v 0.694518 c 0,0.09548 0.07711,0.172079 0.172596,0.172079 h 1.275349 c 0.09548,0 0.172079,-0.0766 0.172079,-0.172079 v -0.694518 c 0,-0.09548 -0.07659,-0.172079 -0.172079,-0.172079 h -1.275349 c -0.003,0 -0.0064,-1.48e-4 -0.0093,0 z" />
  <path
     id="path11980"
     style="opacity:1;fill:#fdfdfd;fill-opacity:1;stroke:none;stroke-width:0.132289;stroke-linecap:round;stroke-linejoin:round;stroke-miterlimit:4;stroke-dasharray:none;stroke-opacity:0.0569775;paint-order:stroke fill markers"
     d="m 1.0247235,5.5196251 c -0.0942604,0.00475 -0.16897864,0.082283 -0.16897864,0.1777634 v 0.068212 c 0,-0.09548 0.0747182,-0.1730135 0.16897864,-0.1777635 0.00304,-1.532e-4 0.00622,0 0.0093,0 h 1.1999032 c 0.09856,0 0.1777634,0.079203 0.1777634,0.1777635 v -0.068212 c 0,-0.098561 -0.079203,-0.1777634 -0.1777634,-0.1777634 H 1.034025 c -0.00308,0 -0.00626,-1.532e-4 -0.0093,0 z m 1.796754,0 c -0.094261,0.00475 -0.1689784,0.082283 -0.1689784,0.1777634 v 0.068212 c 0,-0.09548 0.074717,-0.1730135 0.1689784,-0.1777635 0.00304,-1.532e-4 0.00622,0 0.0093,0 h 0.6934839 c 0.098561,0 0.1777637,0.079203 0.1777637,0.1777635 v -0.068212 c 0,-0.098561 -0.079203,-0.1777634 -0.1777637,-0.1777634 H 2.8307792 c -0.00308,0 -0.00626,-1.532e-4 -0.0093,0 z m 1.2913687,0 c -0.09426,0.00475 -0.1684619,0.082283 -0.1684619,0.1777634 v 0.068212 c 0,-0.09548 0.074202,-0.1730135 0.1684619,-0.1777635 0.00304,-1.532e-4 0.00622,0 0.0093,0 h 0.6934842 c 0.098561,0 0.1782801,0.079203 0.1782801,0.1777635 v -0.068212 c 0,-0.098561 -0.079719,-0.1777634 -0.1782801,-0.1777634 H 4.1221477 c -0.00308,0 -0.00626,-1.532e-4 -0.0093,0 z m 1.3161727,0 C 5.334759,5.5243751 5.260557,5.6019081 5.260557,5.6973885 v 0.068212 c 0,-0.09548 0.074202,-0.1730135 0.1684619,-0.1777635 0.00304,-1.532e-4 0.00622,0 0.0093,0 h 0.6934839 c 0.098561,0 0.1782801,0.079203 0.1782801,0.1777635 v -0.068212 c 0,-0.098561 -0.079719,-0.1777634 -0.1782801,-0.1777634 H 5.4383207 c -0.00308,0 -0.00626,-1.532e-4 -0.0093,0 z m 1.3151393,0 c -0.09426,0.00475 -0.1684617,0.082283 -0.1684617,0.1777634 v 0.068212 c 0,-0.09548 0.074202,-0.1730135 0.1684617,-0.1777635 0.00304,-1.532e-4 0.00622,0 0.0093,0 H 7.446942 c 0.098561,0 0.1782802,0.079203 0.1782802,0.1777635 v -0.068212 c 0,-0.098561 -0.079719,-0.1777634 -0.1782802,-0.1777634 H 6.75346 c -0.00308,0 -0.00626,-1.532e-4 -0.0093,0 z m 1.2815503,0 c -0.09426,0.00475 -0.1689784,0.082283 -0.1689787,0.1777634 v 0.068212 c 3e-7,-0.09548 0.074719,-0.1730135 0.1689787,-0.1777635 0.00304,-1.532e-4 0.0057,0 0.00878,0 h 0.6940006 c 0.09856,0 0.1777634,0.079203 0.1777634,0.1777635 v -0.068212 c 0,-0.098561 -0.079203,-0.1777634 -0.1777634,-0.1777634 H 8.0344935 c -0.00308,0 -0.00574,-1.532e-4 -0.00878,0 z m 1.2924022,0 C 9.2238497,5.5243751 9.149132,5.6019081 9.149132,5.6973885 v 0.068212 c 0,-0.09548 0.074718,-0.1730135 0.1689787,-0.1777635 0.00304,-1.532e-4 0.00622,0 0.0093,0 h 0.6934833 c 0.09856,0 0.177764,0.079203 0.177764,0.1777635 v -0.068212 c 0,-0.098561 -0.0792,-0.1777634 -0.177764,-0.1777634 H 9.3274122 c -0.00308,0 -0.00626,-1.532e-4 -0.0093,0 z m 1.3048043,0 c -0.09426,0.00475 -0.168979,0.082283 -0.168979,0.1777634 v 0.068212 c 0,-0.09548 0.07472,-0.1730135 0.168979,-0.1777635 0.0031,-1.532e-4 0.0057,0 0.0088,0 h 0.694001 c 0.09856,0 0.177763,0.079203 0.177763,0.1777635 v -0.068212 c 0,-0.098561 -0.0792,-0.1777634 -0.177763,-0.1777634 H 10.6317 c -0.0031,0 -0.0057,-1.532e-4 -0.0088,0 z m 1.331675,0 c -0.09426,0.00475 -0.168978,0.082283 -0.168978,0.1777634 v 0.068212 c 0,-0.09548 0.07472,-0.1730135 0.168978,-0.1777635 0.003,-1.532e-4 0.0062,0 0.0093,0 h 0.693484 c 0.09856,0 0.17828,0.079203 0.17828,0.1777635 v -0.068212 c 0,-0.098561 -0.07972,-0.1777634 -0.17828,-0.1777634 H 11.96389 c -0.0031,0 -0.0063,-1.532e-4 -0.0093,0 z m 1.279483,0 c -0.09426,0.00475 -0.168978,0.082283 -0.168978,0.1777634 v 0.068212 c 0,-0.09548 0.07472,-0.1730135 0.168978,-0.1777635 0.0031,-1.532e-4 0.0057,0 0.0088,0 h 0.694001 c 0.09856,0 0.177764,0.079203 0.177764,0.1777635 v -0.068212 c 0,-0.098561 -0.0792,-0.1777634 -0.177764,-0.1777634 h -0.694001 c -0.0031,0 -0.0057,-1.532e-4 -0.0088,0 z m 1.325992,0 c -0.09426,0.00475 -0.168462,0.082283 -0.168462,0.1777634 v 0.068212 c 0,-0.09548 0.0742,-0.1730135 0.168462,-0.1777635 0.003,-1.532e-4 0.0062,0 0.0093,0 h 1.230392 c 0.09856,0 0.177763,0.079203 0.177763,0.1777635 v -0.068212 c 0,-0.098561 -0.0792,-0.1777634 -0.177763,-0.1777634 h -1.230392 c -0.0031,0 -0.0063,-1.532e-4 -0.0093,0 z M 1.0412596,6.3872553 c -0.0985607,0 -0.17776342,0.079203 -0.17776342,0.1777634 v 0.068211 c 0,-0.09856 0.0792027,-0.1777634 0.17776342,-0.1777634 h 1.1575293 c 0.098561,0 0.1777634,0.079203 0.1777634,0.1777634 v -0.068211 c 0,-0.098561 -0.079203,-0.1777634 -0.1777634,-0.1777634 z m 1.7895196,0 c -0.098561,0 -0.1782801,0.079203 -0.1782801,0.1777634 v 0.068211 c 0,-0.09856 0.079719,-0.1777634 0.1782801,-0.1777634 h 0.6934839 c 0.098561,0 0.1777637,0.079203 0.1777637,0.1777634 v -0.068211 c 0,-0.098561 -0.079203,-0.1777634 -0.1777637,-0.1777634 z m 1.2970527,0 c -0.098561,0 -0.1777634,0.079203 -0.1777631,0.1777634 v 0.068211 c -3e-7,-0.09856 0.079202,-0.1777634 0.1777631,-0.1777634 h 0.6940009 c 0.09856,0 0.1777634,0.079203 0.1777634,0.1777634 v -0.068211 c 0,-0.098561 -0.079203,-0.1777634 -0.1777634,-0.1777634 z m 1.2851676,0 c -0.098561,0 -0.1782801,0.079203 -0.1782801,0.1777634 v 0.068211 c 0,-0.09856 0.079719,-0.1777634 0.1782801,-0.1777634 h 0.6934841 c 0.098561,0 0.1782805,0.079203 0.1782802,0.1777634 v -0.068211 c 3e-7,-0.098561 -0.079719,-0.1777634 -0.1782802,-0.1777634 z m 1.316173,0 c -0.098561,0 -0.1782802,0.079203 -0.1782802,0.1777634 v 0.068211 c 0,-0.09856 0.079719,-0.1777634 0.1782802,-0.1777634 h 0.6934841 c 0.09856,0 0.1777632,0.079203 0.1777632,0.1777634 v -0.068211 c 0,-0.098561 -0.079203,-0.1777634 -0.1777632,-0.1777634 z m 1.3135891,0.016536 c -0.098561,0 -0.1777637,0.079719 -0.1777637,0.1782802 v 0.068212 c 0,-0.098561 0.079203,-0.1782802 0.1777637,-0.1782802 h 0.6940006 c 0.098561,0 0.1777634,0.079719 0.1777634,0.1782802 v -0.068212 c 0,-0.098561 -0.079203,-0.1782802 -0.1777634,-0.1782802 z m 1.282067,0 c -0.098561,0 -0.1777635,0.079719 -0.1777635,0.1782802 v 0.068212 c 0,-0.098561 0.079202,-0.1782802 0.1777635,-0.1782802 h 0.6940004 c 0.09856,0 0.177764,0.079719 0.177764,0.1782802 v -0.068212 c 0,-0.098561 -0.0792,-0.1782802 -0.177764,-0.1782802 z m 1.2996364,0 c -0.09856,0 -0.17828,0.079719 -0.17828,0.1782802 v 0.068212 c 0,-0.098561 0.07972,-0.1782802 0.17828,-0.1782802 h 0.693484 c 0.09856,0 0.177764,0.079719 0.177764,0.1782802 v -0.068212 c 0,-0.098561 -0.0792,-0.1782802 -0.177764,-0.1782802 z m 1.328058,0 c -0.09856,0 -0.177763,0.079719 -0.177763,0.1782802 v 0.068212 c 0,-0.098561 0.0792,-0.1782802 0.177763,-0.1782802 h 0.694001 c 0.09856,0 0.177763,0.079719 0.177763,0.1782802 v -0.068212 c 0,-0.098561 -0.0792,-0.1782802 -0.177763,-0.1782802 z m 1.288785,0 c -0.09856,0 -0.177763,0.079719 -0.177763,0.1782802 v 0.068212 c 0,-0.098561 0.0792,-0.1782802 0.177763,-0.1782802 h 0.694001 c 0.09856,0 0.177763,0.079719 0.177763,0.1782802 v -0.068212 c 0,-0.098561 -0.0792,-0.1782802 -0.177763,-0.1782802 z m 1.306355,0 c -0.09856,0 -0.177764,0.079719 -0.177764,0.1782802 v 0.068212 c 0,-0.098561 0.0792,-0.1782802 0.177764,-0.1782802 h 1.24331 c 0.09856,0 0.17828,0.079719 0.17828,0.1782802 v -0.068212 c 0,-0.098561 -0.07972,-0.1782802 -0.17828,-0.1782802 z M 1.0205894,7.7008443 c -0.0985607,0 -0.17828016,0.079719 -0.17828014,0.1782802 v 0.068212 c -2e-8,-0.098561 0.0797195,-0.1782801 0.17828014,-0.1782801 h 2.1176585 c 0.098561,0 0.1782801,0.079719 0.1782801,0.1782801 v -0.068212 c 0,-0.098561 -0.079719,-0.1782802 -0.1782801,-0.1782802 z m 2.7160598,0 c -0.098561,0 -0.1777634,0.079719 -0.1777634,0.1782802 v 0.068212 c 0,-0.098561 0.079203,-0.1782801 0.1777634,-0.1782801 h 0.7301735 c 0.098561,0 0.1777636,0.079719 0.1777636,0.1782801 v -0.068212 c 0,-0.098561 -0.079203,-0.1782802 -0.1777636,-0.1782802 z m 1.3073879,0 c -0.098561,0 -0.1782801,0.079719 -0.1782801,0.1782802 v 0.068212 c 0,-0.098561 0.079719,-0.1782801 0.1782801,-0.1782801 h 0.729657 c 0.098561,0 0.1782802,0.079719 0.1782802,0.1782801 v -0.068212 c 0,-0.098561 -0.079719,-0.1782802 -0.1782802,-0.1782802 z m 1.273799,0 c -0.098561,0 -0.1777635,0.079719 -0.1777635,0.1782802 v 0.068212 c 0,-0.098561 0.079203,-0.1782801 0.1777635,-0.1782801 h 0.7301737 c 0.09856,0 0.1777634,0.079719 0.1777634,0.1782801 v -0.068212 c 0,-0.098561 -0.079203,-0.1782802 -0.1777634,-0.1782802 z m 1.3032541,0 c -0.098561,0 -0.1777637,0.079719 -0.1777637,0.1782802 v 0.068212 c 0,-0.098561 0.079202,-0.1782801 0.1777637,-0.1782801 h 0.7301734 c 0.09856,0 0.1777635,0.079719 0.1777635,0.1782801 v -0.068212 c 0,-0.098561 -0.079203,-0.1782802 -0.1777635,-0.1782802 z m 1.3177229,0 c -0.098561,0 -0.1777635,0.079719 -0.1777635,0.1782802 v 0.068212 c 0,-0.098561 0.079203,-0.1782801 0.1777635,-0.1782801 h 0.7301737 c 0.09856,0 0.1777634,0.079719 0.1777634,0.1782801 v -0.068212 c 0,-0.098561 -0.079203,-0.1782802 -0.1777634,-0.1782802 z m 1.3166899,0 c -0.09856,0 -0.177764,0.079719 -0.177764,0.1782802 v 0.068212 c 0,-0.098561 0.0792,-0.1782801 0.177764,-0.1782801 h 0.730173 c 0.09856,0 0.17828,0.079719 0.17828,0.1782801 v -0.068212 c 0,-0.098561 -0.07972,-0.1782802 -0.17828,-0.1782802 z m 1.317723,0 c -0.09856,0 -0.177764,0.079719 -0.177764,0.1782802 v 0.068212 c 0,-0.098561 0.0792,-0.1782801 0.177764,-0.1782801 h 0.730173 c 0.09856,0 0.177764,0.079719 0.177764,0.1782801 v -0.068212 c 0,-0.098561 -0.0792,-0.1782802 -0.177764,-0.1782802 z m 1.276382,0 c -0.09856,0 -0.177763,0.079719 -0.177763,0.1782802 v 0.068212 c 0,-0.098561 0.0792,-0.1782801 0.177763,-0.1782801 h 0.730174 c 0.09856,0 0.177764,0.079719 0.177764,0.1782801 v -0.068212 c 0,-0.098561 -0.0792,-0.1782802 -0.177764,-0.1782802 z m 1.35338,0 c -0.09856,0 -0.178281,0.079719 -0.178281,0.1782802 v 0.068212 c 0,-0.098561 0.07972,-0.1782801 0.178281,-0.1782801 h 1.587985 c 0.09856,0 0.17828,0.079719 0.17828,0.1782801 v -0.068212 c 0,-0.098561 -0.07972,-0.1782802 -0.17828,-0.1782802 z M 1.0205894,8.9849783 c -0.0985607,0 -0.17828016,0.07972 -0.17828014,0.1782802 v 0.068212 c -2e-8,-0.09856 0.0797195,-0.1782802 0.17828014,-0.1782802 h 2.5052241 c 0.098561,0 0.1782802,0.079719 0.1782802,0.1782802 v -0.068212 c 0,-0.098561 -0.079719,-0.1782802 -0.1782802,-0.1782802 z m 3.1258458,0 c -0.1118514,0 -0.2020509,0.090199 -0.2020509,0.2020509 v 0.068212 c 0,-0.1118519 0.0902,-0.2020509 0.2020509,-0.2020509 h 0.6573113 c 0.111852,0 0.2020509,0.090199 0.2020509,0.2020509 v -0.068212 c 0,-0.1118517 -0.090199,-0.2020509 -0.2020509,-0.2020509 z m 1.2805169,0 c -0.095484,0 -0.172596,0.077112 -0.172596,0.1725959 v 0.068212 c 0,-0.095484 0.077112,-0.1725959 0.172596,-0.1725959 h 0.7162211 c 0.095484,0 0.172596,0.077112 0.172596,0.1725959 v -0.068212 c 0,-0.095484 -0.077112,-0.1725959 -0.172596,-0.1725959 z m 1.2996365,0 c -0.095484,0 -0.1725959,0.077112 -0.1725959,0.1725959 v 0.068212 c 0,-0.095484 0.077112,-0.1725959 0.1725959,-0.1725959 h 0.7162212 c 0.095484,0 0.1725959,0.077112 0.1725959,0.1725959 v -0.068212 c 0,-0.095484 -0.077112,-0.1725959 -0.1725959,-0.1725959 z m 1.2918855,0 c -0.095484,0 -0.1720792,0.077112 -0.1720792,0.1725959 v 0.068212 c 0,-0.095484 0.076595,-0.1725959 0.1720792,-0.1725959 H 8.735212 c 0.095484,0 0.1720792,0.077112 0.1720792,0.1725959 v -0.068212 c 0,-0.095484 -0.076595,-0.1725959 -0.1720792,-0.1725959 z m 1.3177229,0 c -0.095484,0 -0.172079,0.077112 -0.172079,0.1725959 v 0.068212 c 0,-0.095484 0.076595,-0.1725959 0.172079,-0.1725959 h 0.716738 c 0.09548,0 0.172079,0.077112 0.172079,0.1725959 v -0.068212 c 0,-0.095484 -0.0766,-0.1725959 -0.172079,-0.1725959 z m 1.288785,0 c -0.09548,0 -0.172079,0.077112 -0.172079,0.1725959 v 0.068212 c 0,-0.095484 0.0766,-0.1725959 0.172079,-0.1725959 h 0.716738 c 0.09548,0 0.172079,0.077112 0.172079,0.1725959 v -0.068212 c 0,-0.095484 -0.0766,-0.1725959 -0.172079,-0.1725959 z m 1.293952,0 c -0.09548,0 -0.172596,0.077112 -0.172596,0.1725959 v 0.068212 c 0,-0.095484 0.07712,-0.1725959 0.172596,-0.1725959 h 0.716738 c 0.09549,0 0.172079,0.077112 0.172079,0.1725959 v -0.068212 c 0,-0.095484 -0.07659,-0.1725959 -0.172079,-0.1725959 z m 1.329092,0 c -0.09548,0 -0.172596,0.077112 -0.172596,0.1725959 v 0.068212 c 0,-0.095484 0.07712,-0.1725959 0.172596,-0.1725959 h 2.56 c 0.09549,0 0.172079,0.077112 0.172079,0.1725959 v -0.068212 c 0,-0.095484 -0.07659,-0.1725959 -0.172079,-0.1725959 z M 1.027824,10.304768 c -0.0913177,0.0046 -0.16329433,0.07958 -0.16329433,0.17208 v 0.06821 c 0,-0.0925 0.0719766,-0.167479 0.16329433,-0.172079 0.00294,-1.48e-4 0.00632,0 0.0093,0 h 1.189568 c 0.095484,0 0.1720791,0.0766 0.1720791,0.172079 v -0.06821 c 0,-0.09548 -0.076595,-0.17208 -0.1720791,-0.17208 H 1.037124 c -0.00298,0 -0.00636,-1.48e-4 -0.0093,0 z m 1.784352,0 c -0.091318,0.0046 -0.1632942,0.07958 -0.1632942,0.17208 v 0.06821 c 0,-0.0925 0.071976,-0.167479 0.1632942,-0.172079 0.00294,-1.48e-4 0.0058,0 0.00878,0 h 0.722939 c 0.095484,0 0.172596,0.0766 0.172596,0.172079 v -0.06821 c 0,-0.09548 -0.077112,-0.17208 -0.172596,-0.17208 H 2.820956 c -0.00298,0 -0.00584,-1.48e-4 -0.00878,0 z m 1.3125556,0 c -0.091318,0.0046 -0.1638111,0.07958 -0.1638111,0.17208 v 0.06821 c 0,-0.0925 0.072493,-0.167479 0.1638111,-0.172079 0.00294,-1.48e-4 0.0058,0 0.00878,0 h 0.7229391 c 0.095483,0 0.1720789,0.0766 0.1720789,0.172079 v -0.06821 c 0,-0.09548 -0.076596,-0.17208 -0.1720789,-0.17208 H 4.1335164 c -0.00298,0 -0.00584,-1.48e-4 -0.00878,0 z m 1.3275414,0 c -0.095484,0 -0.172596,0.0766 -0.172596,0.17208 v 0.06821 c 0,-0.09548 0.077112,-0.172079 0.172596,-0.172079 h 5.88738 c 0.09549,0 0.172596,0.0766 0.172596,0.172079 v -0.06821 c 0,-0.09548 -0.07711,-0.17208 -0.172596,-0.17208 z m 6.479063,0 c -0.09132,0.0046 -0.163294,0.07958 -0.163294,0.17208 v 0.06821 c 0,-0.0925 0.07197,-0.167479 0.163294,-0.172079 0.003,-1.48e-4 0.0058,0 0.0088,0 h 0.701236 c 0.09549,0 0.172596,0.0766 0.172596,0.172079 v -0.06821 c 0,-0.09548 -0.07711,-0.17208 -0.172596,-0.17208 h -0.701236 c -0.003,0 -0.0058,-1.48e-4 -0.0088,0 z m 1.302737,0 c -0.09132,0.0046 -0.163294,0.07958 -0.163294,0.17208 v 0.06821 c 0,-0.0925 0.07198,-0.167479 0.163294,-0.172079 0.003,-1.48e-4 0.0058,0 0.0088,0 h 0.701236 c 0.09549,0 0.172596,0.0766 0.172596,0.172079 v -0.06821 c 0,-0.09548 -0.07711,-0.17208 -0.172596,-0.17208 h -0.701236 c -0.003,0 -0.0058,-1.48e-4 -0.0088,0 z m 1.289302,0 c -0.09132,0.0046 -0.163294,0.07958 -0.163294,0.17208 v 0.06821 c 0,-0.0925 0.07197,-0.167479 0.163294,-0.172079 0.0029,-1.48e-4 0.0063,0 0.0093,0 h 1.275349 c 0.09549,0 0.172079,0.0766 0.172079,0.172079 v -0.06821 c 0,-0.09548 -0.07659,-0.17208 -0.172079,-0.17208 h -1.275349 c -0.003,0 -0.0064,-1.48e-4 -0.0093,0 z" />
</svg>
