<?xml version="1.0" encoding="UTF-8" standalone="no"?>
<svg
   width="64"
   height="64"
   version="1.1"
   id="svg17"
   sodipodi:docname="blackmagic-Fusion8.svg"
   inkscape:version="1.1.2 (0a00cf5339, 2022-02-04)"
   xmlns:inkscape="http://www.inkscape.org/namespaces/inkscape"
   xmlns:sodipodi="http://sodipodi.sourceforge.net/DTD/sodipodi-0.dtd"
   xmlns:xlink="http://www.w3.org/1999/xlink"
   xmlns="http://www.w3.org/2000/svg"
   xmlns:svg="http://www.w3.org/2000/svg"
   xmlns:rdf="http://www.w3.org/1999/02/22-rdf-syntax-ns#"
   xmlns:cc="http://creativecommons.org/ns#"
   xmlns:dc="http://purl.org/dc/elements/1.1/">
  <sodipodi:namedview
     id="namedview19"
     pagecolor="#ffffff"
     bordercolor="#666666"
     borderopacity="1.0"
     inkscape:pageshadow="2"
     inkscape:pageopacity="0.0"
     inkscape:pagecheckerboard="0"
     showgrid="false"
     inkscape:zoom="10.203125"
     inkscape:cx="21.12098"
     inkscape:cy="23.473201"
     inkscape:window-width="1920"
     inkscape:window-height="1030"
     inkscape:window-x="0"
     inkscape:window-y="24"
     inkscape:window-maximized="1"
     inkscape:current-layer="svg17"
     inkscape:lockguides="true" />
  <metadata
     id="metadata2">
    <rdf:RDF>
      <cc:Work
         rdf:about="">
        <dc:format>image/svg+xml</dc:format>
        <dc:type
           rdf:resource="http://purl.org/dc/dcmitype/StillImage" />
      </cc:Work>
    </rdf:RDF>
  </metadata>
  <defs
     id="defs9">
    <linearGradient
       inkscape:collect="always"
       id="linearGradient1712">
      <stop
         style="stop-color:#0078d7;stop-opacity:1;"
         offset="0"
         id="stop1708" />
      <stop
         style="stop-color:#0099bc;stop-opacity:1"
         offset="1"
         id="stop1710" />
    </linearGradient>
    <linearGradient
       id="linearGradient844"
       x1="15"
       x2="35"
       y1="8"
       y2="38"
       gradientTransform="matrix(1.3636,0,0,1.3636,-0.72727,-0.7274)"
       gradientUnits="userSpaceOnUse">
      <stop
         stop-color="#18d862"
         offset="0"
         id="stop4"
         style="stop-color:#0099bc;stop-opacity:1" />
      <stop
         stop-color="#1cd664"
         offset="1"
         id="stop6"
         style="stop-color:#0078d7;stop-opacity:1" />
    </linearGradient>
    <linearGradient
       inkscape:collect="always"
       xlink:href="#linearGradient1712"
       id="linearGradient1714"
       x1="54.60569"
       y1="51.159843"
       x2="17.024515"
       y2="8.9677591"
       gradientUnits="userSpaceOnUse" />
  </defs>
  <circle
     style="fill:url(#linearGradient1714);stroke-width:10.2409;stroke-linecap:round;stroke-linejoin:round;fill-opacity:1"
     id="path860"
     cx="31.911369"
     cy="31.987297"
     r="29.968281" />
  <path
     style="fill:#ffffff;fill-opacity:1;stroke-width:1.56364"
     d="m 30.385858,43.275993 c -0.255362,0.01594 -0.510076,0.05911 -0.757391,0.125231 -0.989283,0.265055 -1.860845,0.936262 -2.372941,1.823233 -0.512086,0.886969 -0.655985,1.979179 -0.390936,2.968467 0.265055,0.989288 0.936262,1.860847 1.823231,2.372939 0.886967,0.512084 1.979185,0.655987 2.96847,0.390932 0.989282,-0.265054 1.860851,-0.936256 2.372942,-1.823223 0.512084,-0.886969 0.655991,-1.979185 0.390934,-2.968468 -0.265055,-0.989293 -0.936262,-1.860852 -1.823229,-2.37295 -0.665226,-0.38408 -1.444939,-0.563501 -2.21108,-0.516104 z M 41.383236,27.636044 c -1.120693,0.03072 -2.235004,0.388865 -3.142541,1.047513 -1.052413,0.76376 -1.799342,1.863086 -2.620317,2.870743 -0.410494,0.503813 -0.846289,0.990605 -1.349858,1.401779 -0.503575,0.411145 -1.078771,0.748112 -1.707175,0.916191 -0.6284,0.168058 -1.29417,0.162749 -1.936225,0.0579 -0.642054,-0.104726 -1.264233,-0.309081 -1.872086,-0.540569 -1.21571,-0.462914 -2.410506,-1.042675 -3.704484,-1.178835 -1.785347,-0.187876 -3.643889,0.55233 -4.810014,1.914842 -1.166127,1.362521 -1.606837,3.311126 -1.142189,5.042123 0.464629,1.731 1.819713,3.195104 3.512076,3.793041 1.692365,0.597943 3.672517,0.311684 5.124576,-0.742111 1.052413,-0.763761 1.799346,-1.863089 2.620317,-2.870741 0.410494,-0.50381 0.846291,-0.990607 1.34986,-1.401778 0.503575,-0.411203 1.078771,-0.748111 1.707173,-0.916197 0.628408,-0.168057 1.294172,-0.162749 1.936225,-0.0579 0.642056,0.104726 1.264233,0.309081 1.872094,0.540569 1.215702,0.462917 2.4105,1.042675 3.704476,1.178837 1.785351,0.187876 3.643891,-0.552332 4.81002,-1.914844 1.166126,-1.362519 1.606831,-3.311126 1.142184,-5.042122 -0.46463,-1.731 -1.819707,-3.195098 -3.512077,-3.793041 -0.634636,-0.224227 -1.309613,-0.323798 -1.982035,-0.305418 z M 41.05341,12.000186 c -1.494258,0.04019 -2.98001,0.505882 -4.19006,1.362076 -1.403215,0.99289 -2.396069,2.425063 -3.490697,3.735018 -0.547306,0.654974 -1.130421,1.285647 -1.801848,1.820169 -0.671425,0.534545 -1.437343,0.969494 -2.275218,1.188003 -0.83787,0.218495 -1.724542,0.215595 -2.580616,0.07936 -0.85607,-0.13617 -1.687681,-0.401513 -2.498153,-0.702417 -1.620942,-0.601765 -3.216037,-1.356083 -4.941342,-1.533095 -2.380466,-0.244251 -4.858519,0.717725 -6.413357,2.488994 -1.554835,1.771266 -2.143459,4.303542 -1.523933,6.55384 0.619525,2.250298 2.431375,4.154853 4.687856,4.932176 2.256486,0.777328 4.895679,0.404882 6.831754,-0.965056 1.403223,-0.99289 2.39607,-2.425068 3.490698,-3.735018 0.547306,-0.654978 1.130423,-1.28565 1.801848,-1.820173 0.671424,-0.534544 1.437342,-0.969494 2.275218,-1.187999 0.837869,-0.218473 1.724544,-0.215595 2.580613,-0.07944 0.856072,0.136169 1.687683,0.401513 2.498154,0.702416 1.620946,0.601766 3.216039,1.356089 4.941343,1.533102 2.380467,0.244251 4.858523,-0.717726 6.413358,-2.488995 1.554835,-1.771272 2.143461,-4.303545 1.523935,-6.55384 -0.619526,-2.250284 -2.431375,-4.154841 -4.687859,-4.932169 -0.846183,-0.291472 -1.745138,-0.420956 -2.641694,-0.397021 z"
     id="path10" />
</svg>
