<?xml version="1.0" encoding="UTF-8" standalone="no"?>
<!-- Created with Inkscape (http://www.inkscape.org/) -->

<svg
   width="48"
   height="48"
   viewBox="0 0 48 48"
   version="1.1"
   id="svg1015"
   inkscape:version="1.1.2 (0a00cf5339, 2022-02-04)"
   sodipodi:docname="com.katawa_shoujo.KatawaShoujo.svg"
   xmlns:inkscape="http://www.inkscape.org/namespaces/inkscape"
   xmlns:sodipodi="http://sodipodi.sourceforge.net/DTD/sodipodi-0.dtd"
   xmlns:xlink="http://www.w3.org/1999/xlink"
   xmlns="http://www.w3.org/2000/svg"
   xmlns:svg="http://www.w3.org/2000/svg">
  <sodipodi:namedview
     id="namedview1017"
     pagecolor="#ffffff"
     bordercolor="#000000"
     borderopacity="0.25"
     inkscape:showpageshadow="2"
     inkscape:pageopacity="0.0"
     inkscape:pagecheckerboard="0"
     inkscape:deskcolor="#d1d1d1"
     inkscape:document-units="px"
     showgrid="false"
     inkscape:zoom="4.2708333"
     inkscape:cx="-45.541464"
     inkscape:cy="16.741464"
     inkscape:window-width="1920"
     inkscape:window-height="1030"
     inkscape:window-x="0"
     inkscape:window-y="24"
     inkscape:window-maximized="1"
     inkscape:current-layer="svg1015"
     inkscape:pageshadow="2"
     showguides="true"
     inkscape:guide-bbox="true" />
  <defs
     id="defs1012">
    <linearGradient
       inkscape:collect="always"
       id="linearGradient986">
      <stop
         style="stop-color:#ffb900;stop-opacity:1"
         offset="0"
         id="stop982" />
      <stop
         style="stop-color:#ff8c00;stop-opacity:1"
         offset="1"
         id="stop984" />
    </linearGradient>
    <linearGradient
       inkscape:collect="always"
       xlink:href="#linearGradient1777"
       id="linearGradient1779"
       x1="0.5291667"
       y1="0.52916712"
       x2="4.7625003"
       y2="4.7625003"
       gradientUnits="userSpaceOnUse"
       gradientTransform="matrix(9.9212586,0,0,9.9212586,-2.2499999,-2.2499999)" />
    <linearGradient
       inkscape:collect="always"
       id="linearGradient1777">
      <stop
         style="stop-color:#ecf5ff;stop-opacity:1"
         offset="0"
         id="stop1773" />
      <stop
         style="stop-color:#dfe1e4;stop-opacity:1"
         offset="1"
         id="stop1775" />
    </linearGradient>
    <linearGradient
       inkscape:collect="always"
       xlink:href="#linearGradient986"
       id="linearGradient988"
       x1="12.888063"
       y1="13.93976"
       x2="30.475855"
       y2="32.310265"
       gradientUnits="userSpaceOnUse" />
  </defs>
  <rect
     style="fill:url(#linearGradient1779);fill-opacity:1;stroke-width:2.625"
     id="rect1750"
     width="42"
     height="42"
     x="3"
     y="3"
     ry="3" />
  <g
     style="opacity:0.10323173"
     transform="matrix(0.75832524,0,0,0.75832524,5.8673414,7.3221293)"
     id="g8">
    <g
       transform="matrix(0.090632,0,0,0.098526,4,2.2582)"
       id="g6">
      <g
         id="g4">
        <path
           transform="matrix(11.033631,0,0,10.149605,-44.138522,-22.918024)"
           d="M 15.541016,4 C 9.1675921,4 4,9.879821 4,17.132812 c 0,1.948746 0.3021966,3.824426 0.8320312,5.615235 0,0 0.4806422,1.614413 0.90625,2.503906 C 10.602591,36.624809 24,44 24,44 c 0,0 13.397409,-7.375191 18.261719,-18.748047 0.425608,-0.889493 0.90625,-2.503906 0.90625,-2.503906 C 43.697803,20.957238 44,19.081558 44,17.132812 44,9.879821 38.832408,4 32.458984,4 29.116476,4 26.1081,5.4157615 24,8 21.8919,5.4157615 18.883524,4 15.541016,4 Z"
           id="path2" />
      </g>
    </g>
  </g>
  <path
     style="fill:url(#linearGradient988);stroke-width:0.758326;fill-opacity:1"
     d="m 17.652211,9.5972393 c -4.83313,0 -8.7518454,4.4588167 -8.7518454,9.9589437 0,1.477781 0.2291743,2.900158 0.6309514,4.258174 0,0 0.364484,1.22425 0.687233,1.898776 3.688728,8.624321 13.848322,14.217118 13.848322,14.217118 0,0 10.159593,-5.592797 13.848321,-14.217118 0.322751,-0.674526 0.687233,-1.898776 0.687233,-1.898776 0.401785,-1.358016 0.630952,-2.780393 0.630952,-4.258174 0,-5.500127 -3.918716,-9.9589437 -8.751845,-9.9589437 -2.534708,0 -4.816036,1.0736067 -6.414661,3.0333017 -1.598625,-1.959695 -3.879953,-3.0333017 -6.414661,-3.0333017 z"
     id="path10" />
  <path
     style="opacity:0.1;stroke-width:0.758326"
     d="m 35.865606,20.974401 c 0.246685,-0.0138 0.463461,0.0351 0.682422,0.134655 1.068322,0.499458 1.329065,2.041465 1.082982,2.943703 -0.508601,1.710856 -1.972696,4.561607 -3.932862,6.576322 -0.864824,0.85556 -1.99647,1.931069 -3.222293,1.681182 -0.967051,-0.298755 -1.506963,-0.52985 -1.774005,-1.093031 -0.427177,-1.46095 0.856423,-2.056392 1.60113,-2.820435 1.632712,-1.698141 3.339002,-4.270996 4.161375,-5.992831 0.453352,-0.878117 0.537211,-1.218287 1.401251,-1.429548 z"
     id="path12" />
  <path
     style="fill:#ca5010;stroke-width:0.758326;fill-opacity:1"
     d="m 35.865606,20.216074 c 0.246685,-0.0138 0.463461,0.0351 0.682422,0.134655 1.068322,0.499457 1.329065,2.041468 1.082982,2.943707 -0.508601,1.710857 -1.972696,4.561608 -3.932862,6.576323 -0.864824,0.855557 -1.99647,1.931065 -3.222293,1.68118 -0.967051,-0.298754 -1.506963,-0.529852 -1.774005,-1.093032 -0.427177,-1.46095 0.856423,-2.056394 1.60113,-2.820436 1.632712,-1.698138 3.339002,-4.270995 4.161375,-5.992829 0.453352,-0.878116 0.537211,-1.218287 1.401251,-1.429551 z"
     id="path14" />
  <path
     style="opacity:0.1;stroke-width:0.758326"
     d="m 30.45191,21.751178 c -0.424817,0.05546 -0.839047,0.296784 -1.184884,0.808684 -0.223213,0.327453 -0.416205,0.721406 -0.55393,1.156743 -0.173487,0.737705 -0.16119,1.036664 0.44285,1.697345 0.271705,0.266407 0.540817,0.527756 0.807202,0.783503 1.878271,1.803254 3.624415,3.341391 5.315682,4.770637 0.813173,-1.089463 1.550983,-2.256151 2.165371,-3.489481 -0.823598,-0.689831 -1.648816,-1.377104 -2.439378,-2.116498 -0.897282,-0.842162 -1.731681,-1.810079 -2.597854,-2.744485 -0.507656,-0.53651 -1.247028,-0.958889 -1.955059,-0.866448 z"
     id="path16" />
  <path
     style="fill:#d13438;stroke-width:0.758326;fill-opacity:1"
     d="m 30.45191,20.992853 c -0.424817,0.05546 -0.839047,0.296782 -1.184884,0.808681 -0.223213,0.327457 -0.416205,0.72141 -0.55393,1.156743 -0.173487,0.737709 -0.16119,1.036664 0.44285,1.697346 0.271705,0.266405 0.540817,0.52776 0.807202,0.783506 1.878271,1.803255 3.624415,3.34139 5.315682,4.770636 0.813173,-1.089464 1.550983,-2.256149 2.165371,-3.489482 -0.823598,-0.689833 -1.648816,-1.377105 -2.439378,-2.116499 -0.897282,-0.842162 -1.731681,-1.810075 -2.597854,-2.744485 -0.507656,-0.536507 -1.247028,-0.958886 -1.955059,-0.866446 z"
     id="path18" />
  <g
     style="opacity:0.2;fill:#ffffff"
     transform="matrix(0.75832524,0,0,0.75832524,5.8673414,6.5638033)"
     id="g26">
    <g
       style="fill:#ffffff"
       transform="matrix(0.090632,0,0,0.098526,4,2.2582)"
       id="g24">
      <g
         style="fill:#ffffff"
         id="g22">
        <path
           style="fill:#ffffff"
           transform="matrix(11.033631,0,0,10.149605,-44.138522,-22.918024)"
           d="M 15.541016,4 C 9.1675914,4 4,9.8798216 4,17.132812 4,17.316258 4.016191,17.495593 4.021484,17.677734 4.2341949,10.63747 9.3027031,5 15.541016,5 18.883524,5 21.8919,6.4157615 24,9 26.1081,6.4157615 29.116476,5 32.458984,5 38.697297,5 43.765805,10.63747 43.978516,17.677734 43.983809,17.495593 44,17.316258 44,17.132812 44,9.8798216 38.832409,4 32.458984,4 29.116476,4 26.1081,5.4157615 24,8 21.8919,5.4157615 18.883524,4 15.541016,4 Z"
           id="path20" />
      </g>
    </g>
  </g>
</svg>
