<?xml version="1.0" encoding="UTF-8" standalone="no"?>
<svg
   width="64"
   height="64"
   version="1.1"
   id="svg36"
   sodipodi:docname="locale.svg"
   inkscape:version="1.1.2 (0a00cf5339, 2022-02-04)"
   xmlns:inkscape="http://www.inkscape.org/namespaces/inkscape"
   xmlns:sodipodi="http://sodipodi.sourceforge.net/DTD/sodipodi-0.dtd"
   xmlns:xlink="http://www.w3.org/1999/xlink"
   xmlns="http://www.w3.org/2000/svg"
   xmlns:svg="http://www.w3.org/2000/svg"
   xmlns:rdf="http://www.w3.org/1999/02/22-rdf-syntax-ns#"
   xmlns:cc="http://creativecommons.org/ns#"
   xmlns:dc="http://purl.org/dc/elements/1.1/">
  <sodipodi:namedview
     id="namedview38"
     pagecolor="#ffffff"
     bordercolor="#666666"
     borderopacity="1.0"
     inkscape:pageshadow="2"
     inkscape:pageopacity="0.0"
     inkscape:pagecheckerboard="0"
     showgrid="false"
     inkscape:zoom="4.921875"
     inkscape:cx="-28.850794"
     inkscape:cy="26.006349"
     inkscape:window-width="1920"
     inkscape:window-height="995"
     inkscape:window-x="0"
     inkscape:window-y="0"
     inkscape:window-maximized="1"
     inkscape:current-layer="svg36" />
  <defs
     id="defs16">
    <radialGradient
       id="radialGradient875"
       cx="20.107"
       cy="28.705"
       r="28"
       gradientTransform="matrix(1.1841 .66866 -.52684 .93295 -69.809 -12.696)"
       gradientUnits="userSpaceOnUse">
      <stop
         stop-color="#5ab5e2"
         offset="0"
         id="stop2" />
      <stop
         stop-color="#4189ac"
         offset=".45901"
         id="stop4" />
      <stop
         stop-color="#295e76"
         offset="1"
         id="stop6" />
    </radialGradient>
    <linearGradient
       id="linearGradient883"
       x1="4"
       x2="59.861"
       y1="31.36"
       y2="31.36"
       gradientTransform="matrix(1.0714 0 0 1.0714 -83.724 -2.2857)"
       gradientUnits="userSpaceOnUse">
      <stop
         stop-color="#b0d6df"
         offset="0"
         id="stop9" />
      <stop
         stop-color="#e1f8fc"
         offset=".21709"
         id="stop11" />
      <stop
         stop-color="#96c3ce"
         offset="1"
         id="stop13" />
    </linearGradient>
    <linearGradient
       inkscape:collect="always"
       xlink:href="#linearGradient3025"
       id="linearGradient3027"
       x1="115.04775"
       y1="59.174545"
       x2="83.048401"
       y2="15.542969"
       gradientUnits="userSpaceOnUse"
       gradientTransform="matrix(0.64610936,0,0,0.64610936,-43.989715,1.0067582)" />
    <linearGradient
       inkscape:collect="always"
       id="linearGradient3025">
      <stop
         style="stop-color:#1a5bba;stop-opacity:1;"
         offset="0"
         id="stop3021" />
      <stop
         style="stop-color:#1651a8;stop-opacity:1"
         offset="1"
         id="stop3023" />
    </linearGradient>
  </defs>
  <metadata
     id="metadata18">
    <rdf:RDF>
      <cc:Work
         rdf:about="">
        <dc:format>image/svg+xml</dc:format>
        <dc:type
           rdf:resource="http://purl.org/dc/dcmitype/StillImage" />
      </cc:Work>
    </rdf:RDF>
  </metadata>
  <g
     transform="matrix(3.7796 0 0 3.7796 7.2403 -10.983)"
     fill="#5e4aa6"
     stroke-width=".26458"
     id="g28">
    <circle
       cx="-330.35"
       cy="-328.38"
       r="0"
       id="circle20" />
    <circle
       cx="-312.11"
       cy="-326.25"
       r="0"
       id="circle22" />
    <circle
       cx="-306.02"
       cy="-333.07"
       r="0"
       id="circle24" />
    <circle
       cx="-308.84"
       cy="-326.01"
       r="0"
       id="circle26" />
  </g>
  <path
     id="rect849"
     style="fill:url(#linearGradient3027);fill-opacity:1;stroke-width:24.4199;stroke-linecap:round;stroke-linejoin:round"
     d="m 9.6686346,11.049217 c -1.9090373,0 -3.446337,1.537299 -3.446337,3.446337 v 31.997558 c 0,1.909037 1.5372997,3.445074 3.446337,3.445074 H 19.51423 v 10.042458 c 0.06056,1.482473 1.311466,2.769243 2.961758,1.264457 L 33.280649,49.938186 h 21.577785 c 1.909033,0 3.446334,-1.536037 3.446334,-3.445074 V 14.495554 c 0,-1.909038 -1.537301,-3.446337 -3.446334,-3.446337 z" />
  <path
     id="path1211"
     style="fill:#41abff;fill-opacity:0.861682;stroke:none;stroke-width:0.64611px;stroke-linecap:butt;stroke-linejoin:miter;stroke-opacity:1"
     d="M 25.711582,11.049217 40.17837,49.938186 h 14.680064 c 1.909033,0 3.446334,-1.536037 3.446334,-3.445074 V 14.495554 c 0,-1.909038 -1.537301,-3.446337 -3.446334,-3.446337 z" />
  <path
     id="path5005-2"
     style="color:#000000;fill:#ffffff;fill-opacity:1;stroke-width:0.64611;stroke-linecap:square;-inkscape-stroke:none"
     d="m 43.998615,21.303755 v 2.486007 h -6.288208 v 2.584437 h 10.239315 c -0.52769,0.989919 -1.642223,2.511695 -2.884775,3.997801 -0.614405,-0.711105 -1.227588,-1.505807 -1.933282,-2.463291 l -0.765988,-1.039833 -2.080931,1.533248 0.767254,1.039833 c 0.802804,1.089243 1.534711,2.018662 2.296719,2.868372 -1.312422,1.404947 -2.576354,2.599572 -3.193951,3.045043 l -1.048668,0.755897 1.511799,2.09607 1.048668,-0.755898 c 0.944166,-0.681024 2.19829,-1.887116 3.518266,-3.311311 1.022325,0.907812 2.192856,1.784825 3.684839,2.75606 l 1.082737,0.705421 1.409578,-2.166737 -1.082737,-0.704159 c -1.419522,-0.924066 -2.478514,-1.705084 -3.388288,-2.507459 1.467049,-1.719607 2.797789,-3.483073 3.504387,-4.959394 l 0.426536,-0.889663 h 2.099856 v -2.584437 h -6.338689 v -2.486007 z" />
  <g
     aria-label="A"
     transform="matrix(0.62153456,0,0,0.67165581,1.4298521,0.46798712)"
     id="text7524-2"
     style="font-weight:bold;font-size:32.5469px;font-family:Hack;-inkscape-font-specification:'Hack Bold';stroke-width:0.813671">
    <path
       d="m 29.196982,32.341991 h 2.056442 2.056442 L 42.026482,56.06881 H 36.65035 l -1.126038,-3.958557 h -8.629564 l -1.206264,3.958557 h -5.356915 z m 5.085454,15.296531 -3.120965,-8.777176 -2.713039,8.777176 z"
       id="path14081-8"
       sodipodi:nodetypes="cccccccccccccc"
       style="fill:#ffffff;fill-opacity:0.919626" />
  </g>
</svg>
