<?xml version="1.0" encoding="UTF-8" standalone="no"?>
<svg
   width="64"
   height="64"
   version="1.1"
   id="svg6"
   sodipodi:docname="kdeconnect.svg"
   inkscape:version="1.1.2 (0a00cf5339, 2022-02-04)"
   xmlns:inkscape="http://www.inkscape.org/namespaces/inkscape"
   xmlns:sodipodi="http://sodipodi.sourceforge.net/DTD/sodipodi-0.dtd"
   xmlns:xlink="http://www.w3.org/1999/xlink"
   xmlns="http://www.w3.org/2000/svg"
   xmlns:svg="http://www.w3.org/2000/svg"
   xmlns:rdf="http://www.w3.org/1999/02/22-rdf-syntax-ns#"
   xmlns:cc="http://creativecommons.org/ns#"
   xmlns:dc="http://purl.org/dc/elements/1.1/">
  <defs
     id="defs10">
    <linearGradient
       inkscape:collect="always"
       xlink:href="#linearGradient1584"
       id="linearGradient1586"
       x1="192.81299"
       y1="387.39569"
       x2="482.98871"
       y2="569.46875"
       gradientUnits="userSpaceOnUse" />
    <linearGradient
       inkscape:collect="always"
       id="linearGradient1584">
      <stop
         style="stop-color:#96a4af;stop-opacity:1"
         offset="0"
         id="stop1580" />
      <stop
         style="stop-color:#838d97;stop-opacity:1"
         offset="1"
         id="stop1582" />
    </linearGradient>
    <linearGradient
       inkscape:collect="always"
       xlink:href="#linearGradient13549"
       id="linearGradient13551"
       x1="350.55746"
       y1="600.13623"
       x2="350.55746"
       y2="581.18451"
       gradientUnits="userSpaceOnUse" />
    <linearGradient
       inkscape:collect="always"
       id="linearGradient13549">
      <stop
         style="stop-color:#747d86;stop-opacity:1;"
         offset="0"
         id="stop13545" />
      <stop
         style="stop-color:#4f555b;stop-opacity:1"
         offset="1"
         id="stop13547" />
    </linearGradient>
    <linearGradient
       inkscape:collect="always"
       xlink:href="#linearGradient7031"
       id="linearGradient7033"
       x1="274.32635"
       y1="374.7298"
       x2="400.16327"
       y2="510.28622"
       gradientUnits="userSpaceOnUse" />
    <linearGradient
       inkscape:collect="always"
       id="linearGradient7031">
      <stop
         style="stop-color:#fb8d4c;stop-opacity:1"
         offset="0"
         id="stop7027" />
      <stop
         style="stop-color:#de6c8b;stop-opacity:1"
         offset="1"
         id="stop7029" />
    </linearGradient>
  </defs>
  <sodipodi:namedview
     id="namedview8"
     pagecolor="#ffffff"
     bordercolor="#666666"
     borderopacity="1.0"
     inkscape:pageshadow="2"
     inkscape:pageopacity="0.0"
     inkscape:pagecheckerboard="0"
     showgrid="false"
     inkscape:zoom="4.9609375"
     inkscape:cx="37.190551"
     inkscape:cy="22.87874"
     inkscape:window-width="1920"
     inkscape:window-height="1030"
     inkscape:window-x="0"
     inkscape:window-y="24"
     inkscape:window-maximized="1"
     inkscape:current-layer="svg6" />
  <metadata
     id="metadata2">
    <rdf:RDF>
      <cc:Work
         rdf:about="">
        <dc:format>image/svg+xml</dc:format>
        <dc:type
           rdf:resource="http://purl.org/dc/dcmitype/StillImage" />
      </cc:Work>
    </rdf:RDF>
  </metadata>
  <g
     id="g19881"
     transform="matrix(0.15885566,0,0,0.15885566,-21.807441,-42.407342)">
    <rect
       style="fill:url(#linearGradient1586);fill-opacity:1;stroke-width:25;stroke-linecap:round;stroke-linejoin:round;stroke-opacity:0.811765"
       id="rect856"
       width="327.34628"
       height="218.18225"
       x="174.22771"
       y="369.34109"
       rx="6.4010201"
       ry="6.4010201" />
    <path
       id="rect858"
       style="fill:url(#linearGradient13551);fill-opacity:1;stroke-width:25;stroke-linecap:round;stroke-linejoin:round;stroke-opacity:0.811765"
       d="m 184.26707,586.93974 c -5.56174,0 -8.86447,4.40573 -12.68945,8.44336 l -21.7168,23.50557 c -2.18226,2.30359 -2.73242,3.49211 -2.73242,6.5586 -0.29767,8.24163 -0.67576,19.55078 8.78125,19.55078 h 121.74609 124.1543 121.74609 c 9.45701,0 9.08088,-11.30915 8.78321,-19.55078 0,-3.06649 -0.55212,-4.25501 -2.73438,-6.5586 L 507.88817,595.3831 c -3.82498,-4.03763 -7.12772,-8.44336 -12.68946,-8.44336 h -93.38867 -124.1543 z"
       sodipodi:nodetypes="scccsccscccsccs" />
    <rect
       style="fill:url(#linearGradient7033);fill-opacity:1;stroke-width:25;stroke-linecap:round;stroke-linejoin:round;stroke-opacity:0.811765"
       id="rect1498"
       width="290.17572"
       height="182.07306"
       x="192.81299"
       y="387.39569"
       rx="0"
       ry="0" />
    <path
       id="rect11521"
       style="fill:#939aa4;fill-opacity:1;stroke-width:25;stroke-linecap:round;stroke-linejoin:round;stroke-opacity:0.811765"
       d="m 296.90234,606.02734 c -3.71444,0 -5.18144,3.31663 -6.70312,6.70508 l -4.14258,9.22266 H 147.65625 c -0.3887,0.9506 -0.52734,1.9942 -0.52734,3.49219 -0.29767,8.24163 -0.67576,19.55078 8.78125,19.55078 h 121.74609 124.1543 121.74609 c 9.45701,0 9.08087,-11.30915 8.7832,-19.55078 0,-1.49799 -0.14012,-2.54159 -0.52929,-3.49219 H 393.125 l -4.43164,-9.22266 c -1.60893,-3.3479 -2.99064,-6.70508 -6.70508,-6.70508 z" />
    <path
       id="rect19744"
       style="fill:#000000;fill-opacity:0.0514333;stroke-width:25;stroke-linecap:round;stroke-linejoin:round;stroke-opacity:0.811765"
       d="m 389.63672,411.40234 c -9.68928,0 -17.49024,7.79901 -17.49024,17.48828 v 216.10743 h 29.66407 120.59375 v -33.9043 l -14.51563,-15.71094 c -3.33138,-3.51659 -6.26992,-7.3074 -10.64648,-8.22851 2.51882,-0.85978 4.33203,-3.21402 4.33203,-6.03125 V 411.40234 Z" />
    <path
       id="rect19643"
       style="fill:#000000;fill-opacity:0.0514333;stroke-width:25;stroke-linecap:round;stroke-linejoin:round;stroke-opacity:0.811765"
       d="m 398.13867,416.98047 c -9.68927,0 -17.49023,7.80096 -17.49023,17.49023 v 210.52735 h 21.16211 113.83203 v -41.22266 l -7.75391,-8.39258 c -3.33138,-3.51659 -6.26992,-7.3074 -10.64648,-8.22851 2.51882,-0.85978 4.33203,-3.21402 4.33203,-6.03125 V 417.31641 c -1.1066,-0.21793 -2.24949,-0.33594 -3.42188,-0.33594 z" />
    <path
       id="rect19641"
       style="fill:#000000;fill-opacity:0.0514333;stroke-width:25;stroke-linecap:round;stroke-linejoin:round;stroke-opacity:0.811765"
       d="m 404.66797,418.73242 c -9.68928,0 -17.48828,7.80096 -17.48828,17.49024 v 201.70703 c 0,2.52054 0.53661,4.90752 1.48828,7.06836 h 13.14258 118.87109 c 0.95167,-2.16084 1.49024,-4.54782 1.49024,-7.06836 V 610.8418 l -14.28321,-15.45899 c -3.33138,-3.51659 -6.26992,-7.3074 -10.64648,-8.22851 2.51882,-0.85978 4.33203,-3.21402 4.33203,-6.03125 V 418.73242 Z" />
    <g
       id="g19347"
       transform="translate(-568.05859,-28.8418)">
      <rect
         style="fill:#4ae7fd;fill-opacity:1;stroke-width:25;stroke-linecap:round;stroke-linejoin:round;stroke-opacity:0.811765"
         id="rect13613"
         width="134.99315"
         height="236.6869"
         x="961.18298"
         y="451.92828"
         rx="17.489666"
         ry="17.489666" />
      <path
         id="rect14772"
         style="fill:#36c0f1;fill-opacity:1;stroke-width:25;stroke-linecap:round;stroke-linejoin:round;stroke-opacity:0.811765"
         d="m 961.18359,476.73151 v 66.41302 h 134.99221 v -66.41302 z"
         sodipodi:nodetypes="ccccc" />
      <path
         id="path15834"
         style="fill:#1c9de1;fill-opacity:1;stroke-width:25;stroke-linecap:round;stroke-linejoin:round;stroke-opacity:0.811765"
         d="m 961.18359,543.14453 v 70.55859 h 134.99221 v -70.55859 z" />
      <path
         id="path16813"
         style="fill:#0077d3;fill-opacity:1;stroke-width:25;stroke-linecap:round;stroke-linejoin:round;stroke-opacity:0.811765"
         d="M 961.18359,613.70312 V 671.125 c 0,5.25185 2.30328,9.93612 5.94532,13.13672 h 123.10159 c 3.642,-3.2006 5.9453,-7.88487 5.9453,-13.13672 v -57.42188 z" />
      <path
         id="rect17873"
         style="fill:#174e84;fill-opacity:1;stroke-width:25;stroke-linecap:round;stroke-linejoin:round;stroke-opacity:0.811765"
         d="M 961.18359,650.79688 V 671.125 c 0,9.68927 7.79901,17.49023 17.48829,17.49023 h 100.01362 c 9.6893,0 17.4903,-7.80096 17.4903,-17.49023 v -20.32812 z" />
      <rect
         style="fill:#174e84;fill-opacity:1;stroke-width:25;stroke-linecap:round;stroke-linejoin:round;stroke-opacity:0.811765"
         id="rect19135"
         width="37.139824"
         height="11.225857"
         x="1016.8093"
         y="459.44553"
         rx="5.6129284"
         ry="5.6129284" />
      <circle
         style="fill:#174e84;fill-opacity:1;stroke-width:25;stroke-linecap:round;stroke-linejoin:round;stroke-opacity:0.811765"
         id="path19159"
         cx="1004.2325"
         cy="465.05844"
         r="5.1661711" />
    </g>
    <rect
       style="fill:#000000;fill-opacity:0.0514333;stroke-width:25;stroke-linecap:round;stroke-linejoin:round;stroke-opacity:0.811765"
       id="rect19349"
       width="134.99315"
       height="236.6869"
       x="393.12439"
       y="423.08649"
       rx="17.489666"
       ry="17.489666" />
    <path
       id="path19351"
       style="fill:#000000;fill-opacity:0.0514333;stroke-width:25;stroke-linecap:round;stroke-linejoin:round;stroke-opacity:0.811765"
       d="m 393.125,447.88971 v 66.41302 h 134.99221 v -66.41302 z"
       sodipodi:nodetypes="ccccc" />
    <path
       id="path19353"
       style="fill:#000000;fill-opacity:0.0514333;stroke-width:25;stroke-linecap:round;stroke-linejoin:round;stroke-opacity:0.811765"
       d="m 393.125,514.30273 v 70.55859 h 134.99221 v -70.55859 z" />
    <path
       id="path19355"
       style="fill:#000000;fill-opacity:0.0514333;stroke-width:25;stroke-linecap:round;stroke-linejoin:round;stroke-opacity:0.811765"
       d="m 393.125,584.86132 v 57.42188 c 0,5.25185 2.30328,9.93612 5.94532,13.13672 h 123.10159 c 3.642,-3.2006 5.9453,-7.88487 5.9453,-13.13672 v -57.42188 z" />
    <path
       id="path19357"
       style="fill:#000000;fill-opacity:0.0514333;stroke-width:25;stroke-linecap:round;stroke-linejoin:round;stroke-opacity:0.811765"
       d="m 393.125,621.95508 v 20.32812 c 0,9.68927 7.79901,17.49023 17.48829,17.49023 h 100.01362 c 9.6893,0 17.4903,-7.80096 17.4903,-17.49023 v -20.32812 z" />
    <rect
       style="fill:#000000;fill-opacity:0.0514333;stroke-width:25;stroke-linecap:round;stroke-linejoin:round;stroke-opacity:0.811765"
       id="rect19359"
       width="37.139824"
       height="11.225857"
       x="448.75073"
       y="430.60373"
       rx="5.6129284"
       ry="5.6129284" />
    <circle
       style="fill:#000000;fill-opacity:0.0514333;stroke-width:25;stroke-linecap:round;stroke-linejoin:round;stroke-opacity:0.811765"
       id="circle19361"
       cx="436.17389"
       cy="436.21664"
       r="5.1661711" />
  </g>
</svg>
