<?xml version="1.0" encoding="UTF-8" standalone="no"?>
<svg
   id="Activity-Monitor"
   width="64"
   height="64"
   enable-background="new 0 0 1024 1024"
   image-rendering="optimizeSpeed"
   version="1.1"
   viewBox="0 0 64 64"
   sodipodi:docname="whatsapp-for-linux.svg"
   inkscape:version="1.1.2 (0a00cf5339, 2022-02-04)"
   xmlns:inkscape="http://www.inkscape.org/namespaces/inkscape"
   xmlns:sodipodi="http://sodipodi.sourceforge.net/DTD/sodipodi-0.dtd"
   xmlns:xlink="http://www.w3.org/1999/xlink"
   xmlns="http://www.w3.org/2000/svg"
   xmlns:svg="http://www.w3.org/2000/svg"
   xmlns:rdf="http://www.w3.org/1999/02/22-rdf-syntax-ns#"
   xmlns:cc="http://creativecommons.org/ns#"
   xmlns:dc="http://purl.org/dc/elements/1.1/">
  <sodipodi:namedview
     id="namedview16"
     pagecolor="#ffffff"
     bordercolor="#666666"
     borderopacity="1.0"
     inkscape:pageshadow="2"
     inkscape:pageopacity="0.0"
     inkscape:pagecheckerboard="0"
     showgrid="false"
     inkscape:zoom="1.7539563"
     inkscape:cx="-114.313"
     inkscape:cy="-68.701827"
     inkscape:window-width="1920"
     inkscape:window-height="1030"
     inkscape:window-x="0"
     inkscape:window-y="24"
     inkscape:window-maximized="1"
     inkscape:current-layer="Activity-Monitor" />
  <metadata
     id="metadata2">
    <rdf:RDF>
      <cc:Work
         rdf:about="">
        <dc:format>image/svg+xml</dc:format>
        <dc:type
           rdf:resource="http://purl.org/dc/dcmitype/StillImage" />
      </cc:Work>
    </rdf:RDF>
  </metadata>
  <defs
     id="defs9">
    <linearGradient
       id="linearGradient11086"
       x1="-75.448"
       x2="-43.345"
       y1="53.045"
       y2="18.996"
       gradientTransform="matrix(1.0714 0 0 1.0714 90.439 -2.3339)"
       gradientUnits="userSpaceOnUse">
      <stop
         stop-color="#14ab4b"
         offset="0"
         id="stop4" />
      <stop
         stop-color="#76dd38"
         offset="1"
         id="stop6" />
    </linearGradient>
    <linearGradient
       inkscape:collect="always"
       xlink:href="#linearGradient2643"
       id="linearGradient2645"
       x1="1350.1765"
       y1="695.08752"
       x2="1456.1478"
       y2="780.85406"
       gradientUnits="userSpaceOnUse"
       gradientTransform="matrix(0.32969165,0,0,0.32969165,-425.6416,-214.06819)" />
    <linearGradient
       inkscape:collect="always"
       id="linearGradient2643">
      <stop
         style="stop-color:#74c93b;stop-opacity:1"
         offset="0"
         id="stop2639" />
      <stop
         style="stop-color:#229326;stop-opacity:1"
         offset="1"
         id="stop2641" />
    </linearGradient>
  </defs>
  <path
     id="path856"
     style="fill:url(#linearGradient2645);fill-opacity:1;stroke-width:5.01356;stroke-linecap:round;stroke-linejoin:round"
     d="M 31.629669,3.4947912 A 28.930871,28.930871 0 0 0 2.6992265,32.425236 28.930871,28.930871 0 0 0 7.3387136,48.129376 L 4.63422,58.621556 15.50567,56.401934 A 28.930871,28.930871 0 0 0 31.629669,61.356322 28.930871,28.930871 0 0 0 60.560739,32.425236 28.930871,28.930871 0 0 0 31.629669,3.4947912 Z" />
  <g
     id="g1256"
     style="fill:#040404;fill-opacity:0.02246321">
    <path
       id="path1166"
       style="fill:#040404;fill-opacity:0.02246321;stroke-width:1.33743;-inkscape-stroke:none"
       d="m 22.014426,19.16872 c -0.497656,0 -1.301916,0.186579 -1.985236,0.932538 -0.683285,0.746146 -2.612143,2.549705 -2.612143,6.216908 0,3.668541 2.673398,7.212024 3.045761,7.708446 0.372341,0.497789 5.256842,8.020713 12.734222,11.247906 1.777694,0.767303 3.164107,1.22901 4.247349,1.572512 1.785323,0.566704 3.407538,0.489611 4.691416,0.297785 1.431709,-0.214254 4.41176,-1.804568 5.033611,-3.544684 0.620582,-1.741453 0.619154,-3.236346 0.433616,-3.547295 -0.186881,-0.309653 -0.682886,-0.496237 -1.42885,-0.869845 -0.744671,-0.372471 -4.407813,-2.173222 -5.091073,-2.421459 -0.683338,-0.249537 -1.179277,-0.375088 -1.676999,0.370925 -0.496585,0.745877 -1.923695,2.423902 -2.35877,2.920379 -0.435005,0.497773 -0.872185,0.563065 -1.616916,0.190687 -0.746145,-0.373676 -3.148845,-1.163794 -5.994879,-3.701413 -2.216503,-1.97577 -3.710458,-4.415643 -4.145481,-5.161602 -0.435074,-0.746053 -0.04586,-1.14528 0.326521,-1.517658 0.335988,-0.333512 0.745568,-0.872242 1.118,-1.306073 0.373607,-0.436321 0.498834,-0.746893 0.747072,-1.243382 0.248255,-0.497775 0.124139,-0.932413 -0.06268,-1.306074 -0.18563,-0.372338 -1.679456,-4.040636 -2.301301,-5.532528 -0.604258,-1.451849 -1.216746,-1.256093 -1.674384,-1.279952 -0.435081,-0.02132 -0.931079,-0.02612 -1.428851,-0.02612 z"
       sodipodi:nodetypes="scsccccccccccccsccccccs" />
    <path
       id="path1240"
       style="fill:#040404;fill-opacity:0.02246321;stroke-width:1.33743;-inkscape-stroke:none"
       d="m 21.863554,19.691916 c -0.497656,0 -1.301916,0.186579 -1.985236,0.932538 -0.683285,0.746146 -2.612143,2.549705 -2.612143,6.216908 0,3.668541 2.673398,7.212024 3.045761,7.708446 0.372341,0.497789 5.256842,8.020713 12.734222,11.247906 1.777694,0.767303 3.164107,1.22901 4.247349,1.572512 1.785323,0.566704 3.407538,0.489611 4.691416,0.297785 1.431709,-0.214254 4.41176,-1.804568 5.033611,-3.544684 0.620582,-1.741453 0.619154,-3.236346 0.433616,-3.547295 -0.186881,-0.309653 -0.682886,-0.496237 -1.42885,-0.869845 -0.744671,-0.372471 -4.407813,-2.173222 -5.091073,-2.421459 -0.683338,-0.249537 -1.179277,-0.375088 -1.676999,0.370925 -0.496585,0.745877 -1.923695,2.423902 -2.35877,2.920379 -0.435005,0.497773 -0.872185,0.563065 -1.616916,0.190687 -0.746145,-0.373676 -3.148845,-1.163794 -5.994879,-3.701413 -2.216503,-1.97577 -3.710458,-4.415643 -4.145481,-5.161602 -0.435074,-0.746053 -0.04586,-1.14528 0.326521,-1.517658 0.335988,-0.333512 0.745568,-0.872242 1.118,-1.306073 0.373607,-0.436321 0.498834,-0.746893 0.747072,-1.243382 0.248255,-0.497775 0.124139,-0.932413 -0.06268,-1.306074 -0.18563,-0.372338 -1.679456,-4.040636 -2.301301,-5.532528 -0.604258,-1.451849 -1.216746,-1.256093 -1.674384,-1.279952 -0.435081,-0.02132 -0.931079,-0.02612 -1.428851,-0.02612 z"
       sodipodi:nodetypes="scsccccccccccccsccccccs" />
    <path
       id="path1242"
       style="fill:#040404;fill-opacity:0.02246321;stroke-width:1.33743;-inkscape-stroke:none"
       d="m 21.726488,20.055754 c -0.497656,0 -1.301916,0.186579 -1.985236,0.932538 -0.683285,0.746146 -2.612143,2.549705 -2.612143,6.216908 0,3.668541 2.673398,7.212024 3.045761,7.708446 0.372341,0.497789 5.256842,8.020713 12.734222,11.247906 1.777694,0.767303 3.164107,1.22901 4.247349,1.572512 1.785323,0.566704 3.407538,0.489611 4.691416,0.297785 1.431709,-0.214254 4.41176,-1.804568 5.033611,-3.544684 0.620582,-1.741453 0.619154,-3.236346 0.433616,-3.547295 -0.186881,-0.309653 -0.682886,-0.496237 -1.42885,-0.869845 -0.744671,-0.372471 -4.407813,-2.173222 -5.091073,-2.421459 -0.683338,-0.249537 -1.179277,-0.375088 -1.676999,0.370925 -0.496585,0.745877 -1.923695,2.423902 -2.35877,2.920379 -0.435005,0.497773 -0.872185,0.563065 -1.616916,0.190687 -0.746145,-0.373676 -3.148845,-1.163794 -5.994879,-3.701413 -2.216503,-1.97577 -3.710458,-4.415643 -4.145481,-5.161602 -0.435074,-0.746053 -0.04586,-1.14528 0.326521,-1.517658 0.335988,-0.333512 0.745568,-0.872242 1.118,-1.306073 0.373607,-0.436321 0.498834,-0.746893 0.747072,-1.243382 0.248255,-0.497775 0.124139,-0.932413 -0.06268,-1.306074 -0.18563,-0.372338 -1.679456,-4.040636 -2.301301,-5.532528 -0.604258,-1.451849 -1.216746,-1.256093 -1.674384,-1.279952 -0.435081,-0.02132 -0.931079,-0.02612 -1.428851,-0.02612 z"
       sodipodi:nodetypes="scsccccccccccccsccccccs" />
    <path
       id="path1244"
       style="fill:#040404;fill-opacity:0.02246321;stroke-width:1.33743;-inkscape-stroke:none"
       d="m 21.631008,20.515403 c -0.497656,0 -1.301916,0.186579 -1.985236,0.932538 -0.683285,0.746146 -2.612143,2.549705 -2.612143,6.216908 0,3.668541 2.673398,7.212024 3.045761,7.708446 0.372341,0.497789 5.256842,8.020713 12.734222,11.247906 1.777694,0.767303 3.164107,1.22901 4.247349,1.572512 1.785323,0.566704 3.407538,0.489611 4.691416,0.297785 1.431709,-0.214254 4.41176,-1.804568 5.033611,-3.544684 0.620582,-1.741453 0.619154,-3.236346 0.433616,-3.547295 -0.186881,-0.309653 -0.682886,-0.496237 -1.42885,-0.869845 -0.744671,-0.372471 -4.407813,-2.173222 -5.091073,-2.421459 -0.683338,-0.249537 -1.179277,-0.375088 -1.676999,0.370925 -0.496585,0.745877 -1.923695,2.423902 -2.35877,2.920379 -0.435005,0.497773 -0.872185,0.563065 -1.616916,0.190687 -0.746145,-0.373676 -3.148845,-1.163794 -5.994879,-3.701413 -2.216503,-1.97577 -3.710458,-4.415643 -4.145481,-5.161602 -0.435074,-0.746053 -0.04586,-1.14528 0.326521,-1.517658 0.335988,-0.333512 0.745568,-0.872242 1.118,-1.306073 0.373607,-0.436321 0.498834,-0.746893 0.747072,-1.243382 0.248255,-0.497775 0.124139,-0.932413 -0.06268,-1.306074 -0.18563,-0.372338 -1.679456,-4.040636 -2.301301,-5.532528 -0.604258,-1.451849 -1.216746,-1.256093 -1.674384,-1.279952 -0.435081,-0.02132 -0.931079,-0.02612 -1.428851,-0.02612 z"
       sodipodi:nodetypes="scsccccccccccccsccccccs" />
    <path
       id="path1246"
       style="fill:#040404;fill-opacity:0.02246321;stroke-width:1.33743;-inkscape-stroke:none"
       d="m 21.443556,21.126114 c -0.497656,0 -1.301916,0.186579 -1.985236,0.932538 -0.683285,0.746146 -2.612143,2.549705 -2.612143,6.216908 0,3.668541 2.673398,7.212024 3.045761,7.708446 0.372341,0.497789 5.256842,8.020713 12.734222,11.247906 1.777694,0.767303 3.164107,1.22901 4.247349,1.572512 1.785323,0.566704 3.407538,0.489611 4.691416,0.297785 1.431709,-0.214254 4.41176,-1.804568 5.033611,-3.544684 0.620582,-1.741453 0.619154,-3.236346 0.433616,-3.547295 -0.186881,-0.309653 -0.682886,-0.496237 -1.42885,-0.869845 -0.744671,-0.372471 -4.407813,-2.173222 -5.091073,-2.421459 -0.683338,-0.249537 -1.179277,-0.375088 -1.676999,0.370925 -0.496585,0.745877 -1.923695,2.423902 -2.35877,2.920379 -0.435005,0.497773 -0.872185,0.563065 -1.616916,0.190687 -0.746145,-0.373676 -3.148845,-1.163794 -5.994879,-3.701413 -2.216503,-1.97577 -3.710458,-4.415643 -4.145481,-5.161602 -0.435074,-0.746053 -0.04586,-1.14528 0.326521,-1.517658 0.335988,-0.333512 0.745568,-0.872242 1.118,-1.306073 0.373607,-0.436321 0.498834,-0.746893 0.747072,-1.243382 0.248255,-0.497775 0.124139,-0.932413 -0.06268,-1.306074 -0.18563,-0.372338 -1.679456,-4.040636 -2.301301,-5.532528 -0.604258,-1.451849 -1.216746,-1.256093 -1.674384,-1.279952 -0.435081,-0.02132 -0.931079,-0.02612 -1.428851,-0.02612 z"
       sodipodi:nodetypes="scsccccccccccccsccccccs" />
    <path
       id="path1248"
       style="fill:#040404;fill-opacity:0.02246321;stroke-width:1.33743;-inkscape-stroke:none"
       d="m 21.468753,21.907973 c -0.497656,0 -1.301916,0.186579 -1.985236,0.932538 -0.683285,0.746146 -2.612143,2.549705 -2.612143,6.216908 0,3.668541 2.673398,7.212024 3.045761,7.708446 0.372341,0.497789 5.256842,8.020713 12.734222,11.247906 1.777694,0.767303 3.164107,1.22901 4.247349,1.572512 1.785323,0.566704 3.407538,0.489611 4.691416,0.297785 1.431709,-0.214254 4.41176,-1.804568 5.033611,-3.544684 0.620582,-1.741453 0.619154,-3.236346 0.433616,-3.547295 -0.186881,-0.309653 -0.682886,-0.496237 -1.42885,-0.869845 -0.744671,-0.372471 -4.407813,-2.173222 -5.091073,-2.421459 -0.683338,-0.249537 -1.179277,-0.375088 -1.676999,0.370925 -0.496585,0.745877 -1.923695,2.423902 -2.35877,2.920379 -0.435005,0.497773 -0.872185,0.563065 -1.616916,0.190687 -0.746145,-0.373676 -3.148845,-1.163794 -5.994879,-3.701413 -2.216503,-1.97577 -3.710458,-4.415643 -4.145481,-5.161602 -0.435074,-0.746053 -0.04586,-1.14528 0.326521,-1.517658 0.335988,-0.333512 0.745568,-0.872242 1.118,-1.306073 0.373607,-0.436321 0.498834,-0.746893 0.747072,-1.243382 0.248255,-0.497775 0.124139,-0.932413 -0.06268,-1.306074 -0.18563,-0.372338 -1.679456,-4.040636 -2.301301,-5.532528 -0.604258,-1.451849 -1.216746,-1.256093 -1.674384,-1.279952 -0.435081,-0.02132 -0.931079,-0.02612 -1.428851,-0.02612 z"
       sodipodi:nodetypes="scsccccccccccccsccccccs" />
  </g>
  <path
     id="path11"
     style="stroke-width:1.33743;-inkscape-stroke:none;fill:#fafafa;fill-opacity:1"
     d="m 21.336982,18.69198 c -0.497656,0 -1.301916,0.186579 -1.985236,0.932538 -0.683285,0.746146 -2.612143,2.549705 -2.612143,6.216908 0,3.668541 2.673398,7.212024 3.045761,7.708446 0.372341,0.497789 5.256842,8.020713 12.734222,11.247906 1.777694,0.767303 3.164107,1.22901 4.247349,1.572512 1.785323,0.566704 3.407538,0.489611 4.691416,0.297785 1.431709,-0.214254 4.41176,-1.804568 5.033611,-3.544684 0.620582,-1.741453 0.619154,-3.236346 0.433616,-3.547295 -0.186881,-0.309653 -0.682886,-0.496237 -1.42885,-0.869845 -0.744671,-0.372471 -4.407813,-2.173222 -5.091073,-2.421459 -0.683338,-0.249537 -1.179277,-0.375088 -1.676999,0.370925 -0.496585,0.745877 -1.923695,2.423902 -2.35877,2.920379 -0.435005,0.497773 -0.872185,0.563065 -1.616916,0.190687 -0.746145,-0.373676 -3.148845,-1.163794 -5.994879,-3.701413 -2.216503,-1.97577 -3.710458,-4.415643 -4.145481,-5.161602 -0.435074,-0.746053 -0.04586,-1.14528 0.326521,-1.517658 0.335988,-0.333512 0.745568,-0.872242 1.118,-1.306073 0.373607,-0.436321 0.498834,-0.746893 0.747072,-1.243382 0.248255,-0.497775 0.124139,-0.932413 -0.06268,-1.306074 -0.18563,-0.372338 -1.679456,-4.040636 -2.301301,-5.532528 -0.604258,-1.451849 -1.216746,-1.256093 -1.674384,-1.279952 -0.435081,-0.02132 -0.931079,-0.02612 -1.428851,-0.02612 z"
     sodipodi:nodetypes="scsccccccccccccsccccccs" />
</svg>
