<?xml version="1.0" encoding="UTF-8" standalone="no"?>
<!-- Created with Inkscape (http://www.inkscape.org/) -->

<svg
   width="48"
   height="48"
   viewBox="0 0 48 48"
   version="1.1"
   id="svg1015"
   inkscape:version="1.1.2 (0a00cf5339, 2022-02-04)"
   sodipodi:docname="yandex-browser.svg"
   xmlns:inkscape="http://www.inkscape.org/namespaces/inkscape"
   xmlns:sodipodi="http://sodipodi.sourceforge.net/DTD/sodipodi-0.dtd"
   xmlns:xlink="http://www.w3.org/1999/xlink"
   xmlns="http://www.w3.org/2000/svg"
   xmlns:svg="http://www.w3.org/2000/svg">
  <sodipodi:namedview
     id="namedview1017"
     pagecolor="#ffffff"
     bordercolor="#000000"
     borderopacity="0.25"
     inkscape:showpageshadow="2"
     inkscape:pageopacity="0.0"
     inkscape:pagecheckerboard="0"
     inkscape:deskcolor="#d1d1d1"
     inkscape:document-units="px"
     showgrid="false"
     inkscape:zoom="6.0398703"
     inkscape:cx="18.626228"
     inkscape:cy="24.917754"
     inkscape:window-width="1920"
     inkscape:window-height="1007"
     inkscape:window-x="0"
     inkscape:window-y="0"
     inkscape:window-maximized="1"
     inkscape:current-layer="svg1015"
     inkscape:pageshadow="2" />
  <defs
     id="defs1012">
    <linearGradient
       inkscape:collect="always"
       xlink:href="#linearGradient1777"
       id="linearGradient1779"
       x1="0.5291667"
       y1="0.52916712"
       x2="4.7625003"
       y2="4.7625003"
       gradientUnits="userSpaceOnUse"
       gradientTransform="matrix(9.9212586,0,0,9.9212586,-2.2499999,-2.2499999)" />
    <linearGradient
       inkscape:collect="always"
       id="linearGradient1777">
      <stop
         style="stop-color:#fedd00;stop-opacity:1;"
         offset="0"
         id="stop1773" />
      <stop
         style="stop-color:#fdcb00;stop-opacity:1"
         offset="0.63547182"
         id="stop1818" />
      <stop
         style="stop-color:#fab500;stop-opacity:1"
         offset="1"
         id="stop1775" />
    </linearGradient>
  </defs>
  <rect
     style="fill:url(#linearGradient1779);fill-opacity:1;stroke-width:2.625"
     id="rect1750"
     width="42"
     height="42"
     x="3"
     y="3"
     ry="3" />
  <g
     id="g2168"
     style="opacity:0.231848"
     transform="matrix(1.4669172,0,0,1.4669172,-0.45242627,-0.8080265)">
    <g
       id="path1056">
      <path
         id="path1247"
         style="color:#000000;fill:#310000;fill-opacity:0.0360587;stroke-width:1.88976;stroke-linecap:round;stroke-linejoin:round;-inkscape-stroke:none"
         d="M 34.496094,28.996094 A 0.94497638,0.94497638 0 0 0 33.625,30.318359 l 22.263672,50.357422 v 19.923829 a 0.94497638,0.94497638 0 0 0 0.945312,0.94531 h 12.578125 a 0.94497638,0.94497638 0 0 0 0.945313,-0.94531 V 86.375 c 0,-4.042889 -0.939345,-9.847998 -2.371094,-12.902344 l -20.59375,-43.9375 a 0.94497638,0.94497638 0 0 0 -0.857422,-0.539062 z m 45.693359,0.140625 a 0.94497638,0.94497638 0 0 0 -0.863281,0.560547 L 64.472656,63.513672 a 0.94497638,0.94497638 0 0 0 0.865235,1.328125 h 11.99414 a 0.94497638,0.94497638 0 0 0 0.857422,-0.552735 L 93.646484,30.472656 a 0.94497638,0.94497638 0 0 0 -0.855468,-1.335937 z"
         transform="scale(0.26458333)" />
    </g>
    <g
       id="g1940"
       transform="translate(0.13898387,0.26947986)">
      <path
         id="path1938"
         style="color:#000000;fill:#310000;fill-opacity:0.0360587;stroke-width:1.88976;stroke-linecap:round;stroke-linejoin:round;-inkscape-stroke:none"
         d="M 34.496094,28.996094 A 0.94497638,0.94497638 0 0 0 33.625,30.318359 l 22.263672,50.357422 v 19.923829 a 0.94497638,0.94497638 0 0 0 0.945312,0.94531 h 12.578125 a 0.94497638,0.94497638 0 0 0 0.945313,-0.94531 V 86.375 c 0,-4.042889 -0.939345,-9.847998 -2.371094,-12.902344 l -20.59375,-43.9375 a 0.94497638,0.94497638 0 0 0 -0.857422,-0.539062 z m 45.693359,0.140625 a 0.94497638,0.94497638 0 0 0 -0.863281,0.560547 L 64.472656,63.513672 a 0.94497638,0.94497638 0 0 0 0.865235,1.328125 h 11.99414 a 0.94497638,0.94497638 0 0 0 0.857422,-0.552735 L 93.646484,30.472656 a 0.94497638,0.94497638 0 0 0 -0.855468,-1.335937 z"
         transform="scale(0.26458333)" />
    </g>
    <g
       id="g1944"
       transform="translate(0.34432271,0.56828902)">
      <g
         id="path1968"
         transform="scale(0.26458333)">
        <path
           id="path1991"
           style="color:#000000;fill:#310000;fill-opacity:0.0360587;stroke-width:0.755906;stroke-linecap:round;stroke-linejoin:round;-inkscape-stroke:none"
           d="m 33.824449,28.370113 c -0.940787,-0.0033 -1.592586,0.988647 -1.216797,1.851563 a 0.37799055,0.37799055 0 0 0 0,0.002 l 22.230469,50.285109 v 19.843745 c -2.57e-4,0.72651 0.597707,1.32448 1.324219,1.32422 h 12.578125 c 0.726513,2.6e-4 1.324475,-0.59771 1.324218,-1.32422 V 86.127926 c 0,-4.101429 -0.925305,-9.899039 -2.408203,-13.0625 l -4.072265,-8.689454 c 0.234286,0.347269 0.618417,0.598354 1.082031,0.597657 h 11.99414 c 0.516013,-0.0013 0.986986,-0.305928 1.201172,-0.775391 L 93.31859,30.381832 c 0.390947,-0.860244 -0.252367,-1.866259 -1.197266,-1.871094 a 0.37799055,0.37799055 0 0 0 -0.002,0 H 79.517808 c -0.521498,-1.9e-5 -0.996832,0.308761 -1.208984,0.785156 a 0.37799055,0.37799055 0 0 0 0,0.002 l -14.853516,33.81636 c -0.138577,0.312425 -0.131515,0.637516 -0.0293,0.929687 L 47.06273,29.127926 a 0.37799055,0.37799055 0 0 0 0,-0.002 c -0.219514,-0.461452 -0.688279,-0.757319 -1.199218,-0.755813 h -12.03711 z" />
        <path
           id="path2152"
           style="color:#000000;fill:#310000;fill-opacity:0.0360587;stroke-width:0.755906;stroke-linecap:round;stroke-linejoin:round;-inkscape-stroke:none"
           d="m 34.014732,29.417908 c -0.940787,-0.0033 -1.592586,0.988647 -1.216797,1.851563 a 0.37799055,0.37799055 0 0 0 0,0.002 L 55.028404,81.55658 v 19.84375 c -2.57e-4,0.72651 0.597707,1.32448 1.324219,1.32422 h 12.578125 c 0.726513,2.6e-4 1.324475,-0.59771 1.324218,-1.32422 V 87.175721 c 0,-4.101429 -0.925305,-9.899039 -2.408203,-13.0625 l -4.072265,-8.689454 c 0.234286,0.347269 0.618417,0.598354 1.082031,0.597657 h 11.99414 c 0.516013,-0.0013 0.986986,-0.305928 1.201172,-0.775391 L 93.508873,31.429627 c 0.390947,-0.860244 -0.252367,-1.866259 -1.197266,-1.871094 a 0.37799055,0.37799055 0 0 0 -0.002,0 H 79.708091 c -0.521498,-1.9e-5 -0.996832,0.308761 -1.208984,0.785156 a 0.37799055,0.37799055 0 0 0 0,0.002 l -14.853516,33.81636 c -0.138577,0.312425 -0.131515,0.637516 -0.0293,0.929687 L 47.253013,30.175721 a 0.37799055,0.37799055 0 0 0 0,-0.002 c -0.219514,-0.461452 -0.688279,-0.757319 -1.199218,-0.755813 h -12.03711 z" />
        <path
           id="path2154"
           style="color:#000000;fill:#310000;fill-opacity:0.0360587;stroke-width:0.755906;stroke-linecap:round;stroke-linejoin:round;-inkscape-stroke:none"
           d="m 34.10803,30.281861 c -0.940787,-0.0033 -1.592586,0.988647 -1.216797,1.851563 a 0.37799055,0.37799055 0 0 0 0,0.002 l 22.230469,50.285109 v 19.843747 c -2.57e-4,0.72651 0.597707,1.32448 1.324219,1.32422 h 12.578125 c 0.726513,2.6e-4 1.324475,-0.59771 1.324218,-1.32422 V 88.039674 c 0,-4.101429 -0.925305,-9.899039 -2.408203,-13.0625 L 63.867796,66.28772 c 0.234286,0.347269 0.618417,0.598354 1.082031,0.597657 h 11.99414 c 0.516013,-0.0013 0.986986,-0.305928 1.201172,-0.775391 L 93.602171,32.29358 c 0.390947,-0.860244 -0.252367,-1.866259 -1.197266,-1.871094 a 0.37799055,0.37799055 0 0 0 -0.002,0 H 79.801389 c -0.521498,-1.9e-5 -0.996832,0.308761 -1.208984,0.785156 a 0.37799055,0.37799055 0 0 0 0,0.002 l -14.853516,33.81636 c -0.138577,0.312425 -0.131515,0.637516 -0.0293,0.929687 L 47.346311,31.039674 a 0.37799055,0.37799055 0 0 0 0,-0.002 c -0.219514,-0.461452 -0.688279,-0.757319 -1.199218,-0.755813 h -12.03711 z" />
        <path
           id="path2156"
           style="color:#000000;fill:#310000;fill-opacity:0.0360587;stroke-width:0.755906;stroke-linecap:round;stroke-linejoin:round;-inkscape-stroke:none"
           d="m 34.225765,30.814094 c -0.940787,-0.0033 -1.592586,0.988647 -1.216797,1.851563 a 0.37799055,0.37799055 0 0 0 0,0.002 l 22.230469,50.285109 v 19.843744 c -2.57e-4,0.72651 0.597707,1.32448 1.324219,1.32422 h 12.578125 c 0.726513,2.6e-4 1.324475,-0.59771 1.324218,-1.32422 V 88.571907 c 0,-4.101429 -0.925305,-9.899039 -2.408203,-13.0625 l -4.072265,-8.689454 c 0.234286,0.347269 0.618417,0.598354 1.082031,0.597657 h 11.99414 c 0.516013,-0.0013 0.986986,-0.305928 1.201172,-0.775391 L 93.719906,32.825813 c 0.390947,-0.860244 -0.252367,-1.866259 -1.197266,-1.871094 a 0.37799055,0.37799055 0 0 0 -0.002,0 H 79.919124 c -0.521498,-1.9e-5 -0.996832,0.308761 -1.208984,0.785156 a 0.37799055,0.37799055 0 0 0 0,0.002 l -14.853516,33.81636 c -0.138577,0.312425 -0.131515,0.637516 -0.0293,0.929687 L 47.464046,31.571907 a 0.37799055,0.37799055 0 0 0 0,-0.002 c -0.219514,-0.461452 -0.688279,-0.757319 -1.199218,-0.755813 h -12.03711 z" />
      </g>
    </g>
  </g>
  <g
     id="g2280"
     style="opacity:0.14193932"
     transform="matrix(1.4669172,0,0,1.4669172,-0.05225427,0.7312115)">
    <g
       id="g2262">
      <path
         id="path2260"
         style="color:#000000;fill:#310000;fill-opacity:0.0360587;stroke-width:1.88976;stroke-linecap:round;stroke-linejoin:round;-inkscape-stroke:none"
         d="M 34.496094,28.996094 A 0.94497638,0.94497638 0 0 0 33.625,30.318359 l 22.263672,50.357422 v 19.923829 a 0.94497638,0.94497638 0 0 0 0.945312,0.94531 h 12.578125 a 0.94497638,0.94497638 0 0 0 0.945313,-0.94531 V 86.375 c 0,-4.042889 -0.939345,-9.847998 -2.371094,-12.902344 l -20.59375,-43.9375 a 0.94497638,0.94497638 0 0 0 -0.857422,-0.539062 z m 45.693359,0.140625 a 0.94497638,0.94497638 0 0 0 -0.863281,0.560547 L 64.472656,63.513672 a 0.94497638,0.94497638 0 0 0 0.865235,1.328125 h 11.99414 a 0.94497638,0.94497638 0 0 0 0.857422,-0.552735 L 93.646484,30.472656 a 0.94497638,0.94497638 0 0 0 -0.855468,-1.335937 z"
         transform="scale(0.26458333)" />
    </g>
    <g
       id="g2266"
       transform="translate(0.13898387,0.26947986)">
      <path
         id="path2264"
         style="color:#000000;fill:#310000;fill-opacity:0.0360587;stroke-width:1.88976;stroke-linecap:round;stroke-linejoin:round;-inkscape-stroke:none"
         d="M 34.496094,28.996094 A 0.94497638,0.94497638 0 0 0 33.625,30.318359 l 22.263672,50.357422 v 19.923829 a 0.94497638,0.94497638 0 0 0 0.945312,0.94531 h 12.578125 a 0.94497638,0.94497638 0 0 0 0.945313,-0.94531 V 86.375 c 0,-4.042889 -0.939345,-9.847998 -2.371094,-12.902344 l -20.59375,-43.9375 a 0.94497638,0.94497638 0 0 0 -0.857422,-0.539062 z m 45.693359,0.140625 a 0.94497638,0.94497638 0 0 0 -0.863281,0.560547 L 64.472656,63.513672 a 0.94497638,0.94497638 0 0 0 0.865235,1.328125 h 11.99414 a 0.94497638,0.94497638 0 0 0 0.857422,-0.552735 L 93.646484,30.472656 a 0.94497638,0.94497638 0 0 0 -0.855468,-1.335937 z"
         transform="scale(0.26458333)" />
    </g>
    <g
       id="g2278"
       transform="translate(0.34432271,0.56828902)">
      <g
         id="g2276"
         transform="scale(0.26458333)">
        <path
           id="path2268"
           style="color:#000000;fill:#310000;fill-opacity:0.0360587;stroke-width:0.755906;stroke-linecap:round;stroke-linejoin:round;-inkscape-stroke:none"
           d="m 33.824449,28.370113 c -0.940787,-0.0033 -1.592586,0.988647 -1.216797,1.851563 a 0.37799055,0.37799055 0 0 0 0,0.002 l 22.230469,50.285109 v 19.843745 c -2.57e-4,0.72651 0.597707,1.32448 1.324219,1.32422 h 12.578125 c 0.726513,2.6e-4 1.324475,-0.59771 1.324218,-1.32422 V 86.127926 c 0,-4.101429 -0.925305,-9.899039 -2.408203,-13.0625 l -4.072265,-8.689454 c 0.234286,0.347269 0.618417,0.598354 1.082031,0.597657 h 11.99414 c 0.516013,-0.0013 0.986986,-0.305928 1.201172,-0.775391 L 93.31859,30.381832 c 0.390947,-0.860244 -0.252367,-1.866259 -1.197266,-1.871094 a 0.37799055,0.37799055 0 0 0 -0.002,0 H 79.517808 c -0.521498,-1.9e-5 -0.996832,0.308761 -1.208984,0.785156 a 0.37799055,0.37799055 0 0 0 0,0.002 l -14.853516,33.81636 c -0.138577,0.312425 -0.131515,0.637516 -0.0293,0.929687 L 47.06273,29.127926 a 0.37799055,0.37799055 0 0 0 0,-0.002 c -0.219514,-0.461452 -0.688279,-0.757319 -1.199218,-0.755813 h -12.03711 z" />
        <path
           id="path2270"
           style="color:#000000;fill:#310000;fill-opacity:0.0360587;stroke-width:0.755906;stroke-linecap:round;stroke-linejoin:round;-inkscape-stroke:none"
           d="m 34.014732,29.417908 c -0.940787,-0.0033 -1.592586,0.988647 -1.216797,1.851563 a 0.37799055,0.37799055 0 0 0 0,0.002 L 55.028404,81.55658 v 19.84375 c -2.57e-4,0.72651 0.597707,1.32448 1.324219,1.32422 h 12.578125 c 0.726513,2.6e-4 1.324475,-0.59771 1.324218,-1.32422 V 87.175721 c 0,-4.101429 -0.925305,-9.899039 -2.408203,-13.0625 l -4.072265,-8.689454 c 0.234286,0.347269 0.618417,0.598354 1.082031,0.597657 h 11.99414 c 0.516013,-0.0013 0.986986,-0.305928 1.201172,-0.775391 L 93.508873,31.429627 c 0.390947,-0.860244 -0.252367,-1.866259 -1.197266,-1.871094 a 0.37799055,0.37799055 0 0 0 -0.002,0 H 79.708091 c -0.521498,-1.9e-5 -0.996832,0.308761 -1.208984,0.785156 a 0.37799055,0.37799055 0 0 0 0,0.002 l -14.853516,33.81636 c -0.138577,0.312425 -0.131515,0.637516 -0.0293,0.929687 L 47.253013,30.175721 a 0.37799055,0.37799055 0 0 0 0,-0.002 c -0.219514,-0.461452 -0.688279,-0.757319 -1.199218,-0.755813 h -12.03711 z" />
        <path
           id="path2272"
           style="color:#000000;fill:#310000;fill-opacity:0.0360587;stroke-width:0.755906;stroke-linecap:round;stroke-linejoin:round;-inkscape-stroke:none"
           d="m 34.10803,30.281861 c -0.940787,-0.0033 -1.592586,0.988647 -1.216797,1.851563 a 0.37799055,0.37799055 0 0 0 0,0.002 l 22.230469,50.285109 v 19.843747 c -2.57e-4,0.72651 0.597707,1.32448 1.324219,1.32422 h 12.578125 c 0.726513,2.6e-4 1.324475,-0.59771 1.324218,-1.32422 V 88.039674 c 0,-4.101429 -0.925305,-9.899039 -2.408203,-13.0625 L 63.867796,66.28772 c 0.234286,0.347269 0.618417,0.598354 1.082031,0.597657 h 11.99414 c 0.516013,-0.0013 0.986986,-0.305928 1.201172,-0.775391 L 93.602171,32.29358 c 0.390947,-0.860244 -0.252367,-1.866259 -1.197266,-1.871094 a 0.37799055,0.37799055 0 0 0 -0.002,0 H 79.801389 c -0.521498,-1.9e-5 -0.996832,0.308761 -1.208984,0.785156 a 0.37799055,0.37799055 0 0 0 0,0.002 l -14.853516,33.81636 c -0.138577,0.312425 -0.131515,0.637516 -0.0293,0.929687 L 47.346311,31.039674 a 0.37799055,0.37799055 0 0 0 0,-0.002 c -0.219514,-0.461452 -0.688279,-0.757319 -1.199218,-0.755813 h -12.03711 z" />
        <path
           id="path2274"
           style="color:#000000;fill:#310000;fill-opacity:0.0360587;stroke-width:0.755906;stroke-linecap:round;stroke-linejoin:round;-inkscape-stroke:none"
           d="m 34.225765,30.814094 c -0.940787,-0.0033 -1.592586,0.988647 -1.216797,1.851563 a 0.37799055,0.37799055 0 0 0 0,0.002 l 22.230469,50.285109 v 19.843744 c -2.57e-4,0.72651 0.597707,1.32448 1.324219,1.32422 h 12.578125 c 0.726513,2.6e-4 1.324475,-0.59771 1.324218,-1.32422 V 88.571907 c 0,-4.101429 -0.925305,-9.899039 -2.408203,-13.0625 l -4.072265,-8.689454 c 0.234286,0.347269 0.618417,0.598354 1.082031,0.597657 h 11.99414 c 0.516013,-0.0013 0.986986,-0.305928 1.201172,-0.775391 L 93.719906,32.825813 c 0.390947,-0.860244 -0.252367,-1.866259 -1.197266,-1.871094 a 0.37799055,0.37799055 0 0 0 -0.002,0 H 79.919124 c -0.521498,-1.9e-5 -0.996832,0.308761 -1.208984,0.785156 a 0.37799055,0.37799055 0 0 0 0,0.002 l -14.853516,33.81636 c -0.138577,0.312425 -0.131515,0.637516 -0.0293,0.929687 L 47.464046,31.571907 a 0.37799055,0.37799055 0 0 0 0,-0.002 c -0.219514,-0.461452 -0.688279,-0.757319 -1.199218,-0.755813 h -12.03711 z" />
      </g>
    </g>
  </g>
  <path
     id="path867"
     style="fill:#ffffff;fill-opacity:1;stroke:none;stroke-width:0.181639px;stroke-linecap:butt;stroke-linejoin:miter;stroke-opacity:1"
     d="m 12.934699,10.811546 8.671562,19.616113 v 7.808767 h 4.883008 v -5.519103 c 0,-1.506799 -0.38419,-3.784834 -0.885497,-4.854273 L 17.609815,10.811546 Z m 17.735849,0.05463 -5.764603,13.124947 h 4.655248 l 5.999105,-13.124947 z" />
</svg>
